<svg width="125" height="46" viewBox="0 0 125 46" fill="none" xmlns="http://www.w3.org/2000/svg">
<path fill-rule="evenodd" clip-rule="evenodd" d="M17.6348 0C20.1593 3.50064 21.1921 5.14213 22.1338 7.33008L23.8477 6.40527C25.7622 8.98664 26.4995 10.4102 27.2031 12.8809L29.4883 11.7422C30.8014 14.395 31.2553 15.8627 31.3447 18.4326L33.6299 18.0771C33.7151 20.9222 33.677 22.5039 33.2021 25.2646H35.2725C32.9572 31.052 29.3684 34.0292 17.6348 38.7158V0ZM27.3193 22.2412C27.0393 21.9612 26.5857 21.9612 26.3057 22.2412L20.4258 28.1201C20.1462 28.4001 20.1462 28.8539 20.4258 29.1338C20.7058 29.4138 21.1604 29.4138 21.4404 29.1338L27.3193 23.2549C27.5992 22.975 27.5991 22.5212 27.3193 22.2412ZM24.3086 18.8506C24.0286 18.5706 23.5739 18.5706 23.2939 18.8506L20.4268 21.7188C20.1468 21.9987 20.1468 22.4524 20.4268 22.7324C20.7068 23.0124 21.1604 23.0124 21.4404 22.7324L24.3086 19.8652C24.5886 19.5853 24.5885 19.1306 24.3086 18.8506Z" fill="white"/>
<path fill-rule="evenodd" clip-rule="evenodd" d="M17.6338 38.7041C5.9025 34.0189 2.31482 31.0425 0 25.2568H2.07031C1.59555 22.4968 1.55641 20.9158 1.6416 18.0713L3.92578 18.4268C4.0152 15.8578 4.46947 14.3911 5.78223 11.7393L8.06738 12.8779C8.77093 10.4076 9.50841 8.98431 11.4229 6.40332L13.1357 7.32812C14.0773 5.14084 15.1098 3.49958 17.6338 0V38.7041ZM8.96484 22.1025C8.6849 21.8225 8.23109 21.8225 7.95117 22.1025C7.67138 22.3826 7.67133 22.8362 7.95117 23.1162L13.9727 29.1396C14.2526 29.4197 14.7064 29.4197 14.9863 29.1396C15.2659 28.8596 15.2661 28.4059 14.9863 28.126L8.96484 22.1025ZM11.9756 18.8545C11.6956 18.5747 11.2418 18.5745 10.9619 18.8545C10.6821 19.1346 10.682 19.5891 10.9619 19.8691L13.8291 22.7373C14.109 23.0174 14.5638 23.0174 14.8438 22.7373C15.1235 22.4573 15.1236 22.0027 14.8438 21.7227L11.9756 18.8545Z" fill="white"/>
<path d="M16.584 44.4884V40.803C16.584 40.2214 17.0554 39.75 17.637 39.75C18.2185 39.75 18.6899 40.2214 18.6899 40.803V44.4884C18.6899 45.07 18.2185 45.5414 17.637 45.5414C17.0554 45.5414 16.584 45.07 16.584 44.4884Z" fill="white"/>
<path d="M124.068 18.1218C124.068 18.3814 124.052 18.6518 124.02 18.933H117.741C117.784 19.4954 117.962 19.9281 118.276 20.231C118.601 20.523 118.995 20.669 119.46 20.669C120.153 20.669 120.634 20.377 120.904 19.7929H123.857C123.706 20.3878 123.43 20.9232 123.03 21.3991C122.64 21.8751 122.148 22.2482 121.553 22.5186C120.958 22.789 120.293 22.9242 119.558 22.9242C118.671 22.9242 117.881 22.735 117.189 22.3564C116.497 21.9778 115.956 21.437 115.567 20.7339C115.177 20.0309 114.982 19.2088 114.982 18.2678C114.982 17.3268 115.172 16.5047 115.55 15.8016C115.94 15.0986 116.48 14.5578 117.173 14.1792C117.865 13.8006 118.66 13.6113 119.558 13.6113C120.434 13.6113 121.213 13.7952 121.894 14.163C122.576 14.5307 123.106 15.0553 123.484 15.7368C123.874 16.4182 124.068 17.2132 124.068 18.1218ZM121.229 17.3917C121.229 16.9157 121.067 16.5372 120.742 16.2559C120.418 15.9747 120.012 15.8341 119.525 15.8341C119.06 15.8341 118.665 15.9693 118.341 16.2397C118.027 16.5101 117.833 16.8941 117.757 17.3917H121.229Z" fill="white"/>
<path d="M114.07 18.1218C114.07 18.3814 114.054 18.6518 114.021 18.933H107.743C107.786 19.4954 107.964 19.9281 108.278 20.231C108.602 20.523 108.997 20.669 109.462 20.669C110.155 20.669 110.636 20.377 110.906 19.7929H113.859C113.708 20.3878 113.432 20.9232 113.032 21.3991C112.642 21.8751 112.15 22.2482 111.555 22.5186C110.96 22.789 110.295 22.9242 109.56 22.9242C108.673 22.9242 107.883 22.735 107.191 22.3564C106.499 21.9778 105.958 21.437 105.568 20.7339C105.179 20.0309 104.984 19.2088 104.984 18.2678C104.984 17.3268 105.174 16.5047 105.552 15.8016C105.942 15.0986 106.482 14.5578 107.175 14.1792C107.867 13.8006 108.662 13.6113 109.56 13.6113C110.436 13.6113 111.215 13.7952 111.896 14.163C112.577 14.5307 113.107 15.0553 113.486 15.7368C113.875 16.4182 114.07 17.2132 114.07 18.1218ZM111.231 17.3917C111.231 16.9157 111.069 16.5372 110.744 16.2559C110.42 15.9747 110.014 15.8341 109.527 15.8341C109.062 15.8341 108.667 15.9693 108.343 16.2397C108.029 16.5101 107.834 16.8941 107.759 17.3917H111.231Z" fill="white"/>
<path d="M101.372 15.2508C101.697 14.7532 102.102 14.3638 102.589 14.0826C103.076 13.7906 103.616 13.6445 104.211 13.6445V16.5812H103.449C102.757 16.5812 102.237 16.7326 101.891 17.0355C101.545 17.3275 101.372 17.8467 101.372 18.593V22.7952H98.5977V13.7419H101.372V15.2508Z" fill="white"/>
<path d="M97.2045 11.4062V13.629H94.1867V22.7959H91.4123V13.629H88.3945V11.4062H97.2045Z" fill="white"/>
<path d="M80.2057 13.6446C81.244 13.6446 82.0769 13.9907 82.7042 14.683C83.3316 15.3644 83.6453 16.3054 83.6453 17.506V22.7953H80.8871V17.8792C80.8871 17.2735 80.7303 16.803 80.4166 16.4677C80.1029 16.1324 79.6811 15.9647 79.1511 15.9647C78.6211 15.9647 78.1992 16.1324 77.8855 16.4677C77.5719 16.803 77.415 17.2735 77.415 17.8792V22.7953H74.6406V10.7891H77.415V14.9588C77.6963 14.5586 78.0802 14.2395 78.567 14.0015C79.0537 13.7636 79.5999 13.6446 80.2057 13.6446Z" fill="white"/>
<path d="M64.2656 18.2678C64.2656 17.3268 64.4549 16.5047 64.8335 15.8016C65.2229 15.0986 65.7583 14.5578 66.4397 14.1792C67.132 13.8006 67.9216 13.6113 68.8085 13.6113C69.9442 13.6113 70.8907 13.9088 71.6478 14.5037C72.4158 15.0986 72.9187 15.9369 73.1567 17.0185H70.2038C69.955 16.3262 69.4737 15.9801 68.7598 15.9801C68.2515 15.9801 67.8459 16.1802 67.543 16.5804C67.2401 16.9698 67.0887 17.5323 67.0887 18.2678C67.0887 19.0033 67.2401 19.5712 67.543 19.9714C67.8459 20.3608 68.2515 20.5555 68.7598 20.5555C69.4737 20.5555 69.955 20.2093 70.2038 19.5171H73.1567C72.9187 20.5771 72.4158 21.4099 71.6478 22.0157C70.8799 22.6214 69.9334 22.9242 68.8085 22.9242C67.9216 22.9242 67.132 22.735 66.4397 22.3564C65.7583 21.9778 65.2229 21.437 64.8335 20.7339C64.4549 20.0309 64.2656 19.2088 64.2656 18.2678Z" fill="white"/>
<path d="M60.6514 15.2508C60.9759 14.7532 61.3815 14.3638 61.8682 14.0826C62.3549 13.7906 62.8958 13.6445 63.4907 13.6445V16.5812H62.7281C62.0359 16.5812 61.5167 16.7326 61.1705 17.0355C60.8244 17.3275 60.6514 17.8467 60.6514 18.593V22.7952H57.877V13.7419H60.6514V15.2508Z" fill="white"/>
<path d="M54.4869 12.8004C54.0002 12.8004 53.6 12.6598 53.2863 12.3785C52.9835 12.0865 52.832 11.7296 52.832 11.3077C52.832 10.8751 52.9835 10.5181 53.2863 10.2369C53.6 9.94485 54.0002 9.79883 54.4869 9.79883C54.9629 9.79883 55.3523 9.94485 55.6551 10.2369C55.9688 10.5181 56.1256 10.8751 56.1256 11.3077C56.1256 11.7296 55.9688 12.0865 55.6551 12.3785C55.3523 12.6598 54.9629 12.8004 54.4869 12.8004ZM55.866 13.7414V22.7947H53.0916V13.7414H55.866Z" fill="white"/>
<path d="M49.2919 16.9551C49.9517 17.0957 50.4817 17.4256 50.8819 17.9448C51.2822 18.4531 51.4823 19.0372 51.4823 19.697C51.4823 20.6489 51.1469 21.406 50.4763 21.9685C49.8165 22.5201 48.8917 22.7959 47.7019 22.7959H42.3965V11.4062H47.5235C48.6808 11.4062 49.584 11.6713 50.233 12.2013C50.8928 12.7313 51.2227 13.4505 51.2227 14.3591C51.2227 15.0297 51.0442 15.5868 50.6873 16.0303C50.3411 16.4737 49.876 16.782 49.2919 16.9551ZM45.1709 16.014H46.988C47.4423 16.014 47.7885 15.9167 48.0264 15.722C48.2752 15.5165 48.3996 15.219 48.3996 14.8296C48.3996 14.4402 48.2752 14.1428 48.0264 13.9373C47.7885 13.7318 47.4423 13.629 46.988 13.629H45.1709V16.014ZM47.2152 20.5569C47.6803 20.5569 48.0372 20.4542 48.286 20.2487C48.5456 20.0323 48.6754 19.7241 48.6754 19.3239C48.6754 18.9236 48.5402 18.61 48.2698 18.3828C48.0102 18.1557 47.6478 18.0421 47.1827 18.0421H45.1709V20.5569H47.2152Z" fill="white"/>
<path d="M95.9005 39.1227C95.0871 39.1227 94.4208 38.9367 93.9016 38.5646C93.391 38.1838 93.1055 37.669 93.0449 37.02H93.9795C94.0227 37.418 94.2088 37.7425 94.5376 37.9935C94.8751 38.2358 95.325 38.3569 95.8875 38.3569C96.3807 38.3569 96.7658 38.2401 97.0427 38.0064C97.3282 37.7728 97.471 37.4829 97.471 37.1368C97.471 36.8945 97.3931 36.6955 97.2374 36.5397C97.0816 36.384 96.8826 36.2628 96.6403 36.1763C96.4067 36.0811 96.0865 35.9816 95.6798 35.8778C95.152 35.7393 94.7236 35.6009 94.3948 35.4624C94.066 35.324 93.7848 35.1206 93.5511 34.8524C93.3261 34.5755 93.2137 34.2077 93.2137 33.7491C93.2137 33.403 93.3175 33.0828 93.5252 32.7886C93.7328 32.4944 94.027 32.2608 94.4078 32.0877C94.7885 31.9147 95.2212 31.8281 95.7058 31.8281C96.4672 31.8281 97.0816 32.0228 97.5489 32.4122C98.0161 32.7929 98.2671 33.3208 98.3017 33.9957H97.3931C97.3672 33.5804 97.2027 33.2472 96.8999 32.9963C96.6057 32.7367 96.199 32.6069 95.6798 32.6069C95.2212 32.6069 94.8491 32.7151 94.5635 32.9314C94.278 33.1477 94.1352 33.416 94.1352 33.7361C94.1352 34.013 94.2174 34.2423 94.3818 34.4241C94.5549 34.5971 94.7669 34.7356 95.0178 34.8394C95.2688 34.9346 95.6062 35.0428 96.0302 35.1639C96.5408 35.3024 96.9475 35.4365 97.2503 35.5663C97.5532 35.6961 97.8128 35.8864 98.0291 36.1374C98.2454 36.3883 98.3579 36.7215 98.3666 37.1368C98.3666 37.5175 98.2628 37.8593 98.0551 38.1622C97.8474 38.4564 97.5575 38.69 97.1854 38.8631C96.8134 39.0362 96.385 39.1227 95.9005 39.1227Z" fill="white"/>
<path d="M85.084 35.4754C85.084 34.7399 85.2311 34.0996 85.5253 33.5544C85.8195 33.0006 86.2262 32.5766 86.7454 32.2824C87.2646 31.9796 87.8573 31.8281 88.5236 31.8281C89.3976 31.8281 90.1158 32.0445 90.6782 32.4771C91.2493 32.9098 91.6171 33.4982 91.7815 34.2423H90.808C90.6869 33.7318 90.423 33.3338 90.0163 33.0482C89.6182 32.754 89.1207 32.6069 88.5236 32.6069C88.0477 32.6069 87.6193 32.7151 87.2386 32.9314C86.8579 33.1477 86.555 33.4722 86.33 33.9049C86.1137 34.3289 86.0055 34.8524 86.0055 35.4754C86.0055 36.0984 86.1137 36.6263 86.33 37.0589C86.555 37.4916 86.8579 37.8161 87.2386 38.0324C87.6193 38.2487 88.0477 38.3569 88.5236 38.3569C89.1207 38.3569 89.6182 38.2141 90.0163 37.9286C90.423 37.6344 90.6869 37.2277 90.808 36.7085H91.7815C91.6171 37.4353 91.2493 38.0194 90.6782 38.4607C90.1071 38.902 89.3889 39.1227 88.5236 39.1227C87.8573 39.1227 87.2646 38.9756 86.7454 38.6814C86.2262 38.3785 85.8195 37.9545 85.5253 37.4094C85.2311 36.8556 85.084 36.2109 85.084 35.4754Z" fill="white"/>
<path d="M82.9881 30.5947C82.8064 30.5947 82.6507 30.5298 82.5209 30.4C82.3911 30.2702 82.3262 30.1101 82.3262 29.9198C82.3262 29.7294 82.3911 29.5737 82.5209 29.4525C82.6507 29.3227 82.8064 29.2578 82.9881 29.2578C83.1699 29.2578 83.3256 29.3227 83.4554 29.4525C83.5852 29.5737 83.6501 29.7294 83.6501 29.9198C83.6501 30.1101 83.5852 30.2702 83.4554 30.4C83.3256 30.5298 83.1699 30.5947 82.9881 30.5947ZM83.4424 31.9316V39.0185H82.5338V31.9316H83.4424Z" fill="white"/>
<path d="M79.0877 32.6983V37.0984C79.0877 37.5311 79.1699 37.8296 79.3343 37.994C79.4987 38.1584 79.7886 38.2406 80.204 38.2406H81.0347V39.0194H80.0612C79.4208 39.0194 78.9449 38.8723 78.6334 38.5781C78.3219 38.2752 78.1661 37.782 78.1661 37.0984V32.6983H77.1797V31.9325H78.1661V30.1543H79.0877V31.9325H81.0347V32.6983H79.0877Z" fill="white"/>
<path d="M76.6748 31.9316L72.4694 42.3543H71.5218L72.8977 38.9796L69.9902 31.9316H70.9897L73.4039 37.9802L75.7402 31.9316H76.6748Z" fill="white"/>
<path d="M68.7777 29.4141V39.019H67.8691V29.4141H68.7777Z" fill="white"/>
<path d="M58.6953 35.4624C58.6953 34.7356 58.8381 34.0996 59.1236 33.5544C59.4178 33.0006 59.8202 32.5766 60.3308 32.2824C60.8499 31.9796 61.434 31.8281 62.083 31.8281C62.758 31.8281 63.3377 31.9839 63.8223 32.2954C64.3155 32.6069 64.6703 33.0049 64.8866 33.4895V31.932H65.7952V39.0189H64.8866V37.4483C64.6616 37.9329 64.3025 38.3353 63.8093 38.6554C63.3247 38.9669 62.745 39.1227 62.07 39.1227C61.4297 39.1227 60.8499 38.9713 60.3308 38.6684C59.8202 38.3656 59.4178 37.9372 59.1236 37.3834C58.8381 36.8296 58.6953 36.1893 58.6953 35.4624ZM64.8866 35.4754C64.8866 34.9043 64.7698 34.4024 64.5362 33.9698C64.3025 33.5371 63.9824 33.204 63.5757 32.9703C63.1776 32.7367 62.7363 32.6199 62.2517 32.6199C61.7499 32.6199 61.2999 32.7324 60.9019 32.9574C60.5038 33.1823 60.188 33.5112 59.9543 33.9438C59.7294 34.3678 59.6169 34.874 59.6169 35.4624C59.6169 36.0422 59.7294 36.5527 59.9543 36.994C60.188 37.4267 60.5038 37.7598 60.9019 37.9935C61.2999 38.2185 61.7499 38.3309 62.2517 38.3309C62.7363 38.3309 63.1776 38.2141 63.5757 37.9805C63.9824 37.7469 64.3025 37.4137 64.5362 36.9811C64.7698 36.5484 64.8866 36.0465 64.8866 35.4754Z" fill="white"/>
<path d="M54.2193 31.8008C55.0673 31.8008 55.7595 32.0647 56.296 32.5925C56.8325 33.1117 57.1008 33.8689 57.1008 34.864V39.0175H56.2052V34.9678C56.2052 34.1977 56.0105 33.6093 55.6211 33.2026C55.2403 32.7959 54.7168 32.5925 54.0505 32.5925C53.3669 32.5925 52.8218 32.8089 52.4151 33.2415C52.0084 33.6742 51.8051 34.3102 51.8051 35.1495V39.0175H50.8965V31.9306H51.8051V33.1377C52.03 32.705 52.3545 32.3762 52.7785 32.1512C53.2025 31.9176 53.6828 31.8008 54.2193 31.8008Z" fill="white"/>
<path d="M47.6864 36.8638H43.5589L42.7671 39.0185H41.8066L45.1165 30.0625H46.1419L49.4387 39.0185H48.4782L47.6864 36.8638ZM47.4139 36.111L45.6227 31.2047L43.8315 36.111H47.4139Z" fill="white"/>
</svg>
