<svg width="172" height="26" viewBox="0 0 172 26" fill="none" xmlns="http://www.w3.org/2000/svg">
<path fill-rule="evenodd" clip-rule="evenodd" d="M0 5.3457C0 2.39335 2.33524 0 5.21591 0C8.09658 0 10.4318 2.39335 10.4318 5.3457V14.4199C10.4318 14.5936 10.5692 14.7344 10.7386 14.7344C10.9081 14.7344 11.0455 14.5936 11.0455 14.4199V8.58008C11.0455 5.62773 13.3807 3.23438 16.2614 3.23438C19.142 3.23438 21.4773 5.62773 21.4773 8.58008V17.6543C21.4773 17.828 21.6146 17.9688 21.7841 17.9688C21.9535 17.9688 22.0909 17.828 22.0909 17.6543V2.51563C22.0909 1.12628 23.1898 0 24.5455 0C25.9011 0 27 1.12628 27 2.51563V17.6543C27 20.6066 24.6648 23 21.7841 23C18.9034 23 16.5682 20.6066 16.5682 17.6543V8.58008C16.5682 8.40641 16.4308 8.26562 16.2614 8.26562C16.0919 8.26562 15.9545 8.40641 15.9545 8.58008V14.4199C15.9545 17.3723 13.6193 19.7656 10.7386 19.7656C7.85797 19.7656 5.52273 17.3723 5.52273 14.4199V5.3457C5.52273 5.17204 5.38536 5.03125 5.21591 5.03125C5.04646 5.03125 4.90909 5.17204 4.90909 5.3457V20.4844C4.90909 21.8737 3.81015 23 2.45455 23C1.09894 23 0 21.8737 0 20.4844V5.3457Z" fill="white"/>
<path d="M165.047 17.4676C165.213 17.8852 165.437 18.2693 165.72 18.62C166.002 18.9708 166.359 19.2547 166.791 19.4718C167.24 19.6889 167.763 19.7975 168.361 19.7975C169.059 19.7975 169.616 19.6221 170.031 19.2714C170.463 18.904 170.679 18.4029 170.679 17.7683C170.679 17.3006 170.546 16.9165 170.28 16.6159C170.015 16.2985 169.666 16.0397 169.234 15.8392C168.802 15.6221 168.336 15.4301 167.838 15.263C167.306 15.0626 166.791 14.8372 166.293 14.5866C165.794 14.3361 165.379 14.0021 165.047 13.5846C164.731 13.1503 164.573 12.5908 164.573 11.9061C164.573 11.2547 164.731 10.7119 165.047 10.2777C165.379 9.84342 165.803 9.5261 166.318 9.32568C166.849 9.10856 167.414 9 168.012 9C168.66 9 169.242 9.10856 169.757 9.32568C170.272 9.5428 170.712 9.82672 171.078 10.1775C171.443 10.5282 171.726 10.9207 171.925 11.3549L170.854 12.0063C170.588 11.5052 170.214 11.071 169.732 10.7035C169.25 10.3361 168.627 10.1524 167.863 10.1524C167.298 10.1524 166.816 10.2944 166.417 10.5783C166.035 10.8622 165.844 11.2797 165.844 11.8309C165.844 12.2818 165.969 12.6576 166.218 12.9582C166.467 13.2422 166.8 13.476 167.215 13.6597C167.63 13.8434 168.071 14.0188 168.536 14.1858C169.151 14.4196 169.715 14.6785 170.231 14.9624C170.762 15.2463 171.186 15.5971 171.502 16.0146C171.834 16.4322 172 16.9666 172 17.618C172 18.62 171.651 19.4384 170.953 20.0731C170.272 20.691 169.383 21 168.287 21C167.489 21 166.791 20.858 166.193 20.5741C165.612 20.2902 165.138 19.9228 164.773 19.4718C164.424 19.0209 164.166 18.5532 164 18.0689L165.047 17.4676Z" fill="white"/>
<path d="M159.715 1H161V20.7468H159.715V1ZM150 14.9241C150 13.6582 150.247 12.5781 150.742 11.6835C151.236 10.7722 151.895 10.0717 152.719 9.58228C153.56 9.09283 154.482 8.8481 155.488 8.8481C156.476 8.8481 157.325 9.11814 158.034 9.65823C158.742 10.1814 159.294 10.8987 159.69 11.8101C160.102 12.7215 160.308 13.7595 160.308 14.9241C160.308 16.0717 160.102 17.1097 159.69 18.038C159.294 18.9494 158.742 19.6751 158.034 20.2152C157.325 20.7384 156.476 21 155.488 21C154.482 21 153.56 20.7553 152.719 20.2658C151.895 19.7764 151.236 19.076 150.742 18.1646C150.247 17.2532 150 16.173 150 14.9241ZM151.31 14.9241C151.31 15.9367 151.5 16.8059 151.879 17.5316C152.274 18.2574 152.801 18.8143 153.461 19.2025C154.136 19.5738 154.87 19.7595 155.661 19.7595C156.369 19.7595 157.028 19.5485 157.638 19.1266C158.264 18.7046 158.767 18.1308 159.146 17.4051C159.525 16.6793 159.715 15.8523 159.715 14.9241C159.715 13.9958 159.525 13.1688 159.146 12.443C158.767 11.7173 158.264 11.1435 157.638 10.7215C157.028 10.2996 156.369 10.0886 155.661 10.0886C154.87 10.0886 154.136 10.2827 153.461 10.6709C152.801 11.0422 152.274 11.5907 151.879 12.3165C151.5 13.0422 151.31 13.9114 151.31 14.9241Z" fill="white"/>
<path d="M146.651 13.0723C146.651 12.1518 146.427 11.434 145.977 10.9191C145.527 10.4043 144.818 10.1468 143.85 10.1468C143.176 10.1468 142.571 10.295 142.035 10.5915C141.516 10.8723 141.101 11.2624 140.79 11.7617C140.496 12.261 140.349 12.8227 140.349 13.4468V20H139V9.23404H140.349V11.4809C140.677 10.7007 141.17 10.0922 141.827 9.65532C142.501 9.21844 143.28 9 144.161 9C145.406 9 146.357 9.35887 147.014 10.0766C147.671 10.7787 148 11.7305 148 12.9319V20H146.651V13.0723Z" fill="white"/>
<path d="M128.199 16.4553C128.199 17.4766 128.399 18.2851 128.798 18.8809C129.198 19.4596 129.828 19.7489 130.689 19.7489C131.288 19.7489 131.818 19.5872 132.28 19.2638C132.756 18.9404 133.125 18.5064 133.386 17.9617C133.663 17.417 133.801 16.8128 133.801 16.1489V9H135V20.7447H133.801V18.2936C133.509 19.1447 133.071 19.8085 132.487 20.2851C131.903 20.7617 131.211 21 130.412 21C129.305 21 128.46 20.6085 127.876 19.8255C127.292 19.0255 127 17.9532 127 16.6085V9H128.199V16.4553Z" fill="white"/>
<path d="M112 15C112 13.8333 112.263 12.8 112.788 11.9C113.314 11 114.025 10.2917 114.924 9.775C115.839 9.25833 116.864 9 118 9C119.136 9 120.153 9.25833 121.051 9.775C121.966 10.2917 122.686 11 123.212 11.9C123.737 12.8 124 13.8333 124 15C124 16.15 123.737 17.1833 123.212 18.1C122.686 19 121.966 19.7083 121.051 20.225C120.153 20.7417 119.136 21 118 21C116.864 21 115.839 20.7417 114.924 20.225C114.025 19.7083 113.314 19 112.788 18.1C112.263 17.1833 112 16.15 112 15ZM113.347 15C113.347 15.9333 113.551 16.7583 113.958 17.475C114.364 18.1917 114.915 18.7583 115.61 19.175C116.322 19.575 117.119 19.775 118 19.775C118.881 19.775 119.669 19.575 120.364 19.175C121.076 18.7583 121.636 18.1917 122.042 17.475C122.449 16.7583 122.653 15.9333 122.653 15C122.653 14.0833 122.449 13.2667 122.042 12.55C121.636 11.8167 121.076 11.25 120.364 10.85C119.669 10.4333 118.881 10.225 118 10.225C117.119 10.225 116.322 10.4333 115.61 10.85C114.915 11.25 114.364 11.8083 113.958 12.525C113.551 13.2417 113.347 14.0667 113.347 15Z" fill="white"/>
<path d="M106.333 9.23404V20H105V9.23404H106.333ZM110.256 10.6617C110 10.4901 109.752 10.3652 109.513 10.2872C109.291 10.1936 109.026 10.1468 108.718 10.1468C108.137 10.1468 107.667 10.295 107.308 10.5915C106.966 10.8879 106.718 11.2858 106.564 11.7851C106.41 12.2844 106.333 12.8383 106.333 13.4468H105.718C105.718 12.5887 105.863 11.8319 106.154 11.1766C106.444 10.5057 106.838 9.97518 107.333 9.58511C107.846 9.19504 108.41 9 109.026 9C109.402 9 109.752 9.05461 110.077 9.16383C110.419 9.25745 110.726 9.42128 111 9.65532L110.256 10.6617Z" fill="white"/>
<path d="M91.2719 21.1429H92.582C92.582 21.839 92.7468 22.4624 93.0764 23.0129C93.406 23.5633 93.8674 24.0005 94.4607 24.3243C95.0704 24.6481 95.7708 24.81 96.5618 24.81C97.2704 24.81 97.9378 24.6481 98.564 24.3243C99.1903 24.0005 99.7011 23.4905 100.097 22.7943C100.509 22.1143 100.715 21.24 100.715 20.1714V9.24286H102V20.1714C102 21.4505 101.745 22.519 101.234 23.3771C100.723 24.2514 100.055 24.9071 99.2315 25.3443C98.4075 25.7814 97.5176 26 96.5618 26C95.5236 26 94.6007 25.7976 93.7933 25.3929C93.0022 24.9881 92.3843 24.4133 91.9393 23.6686C91.4944 22.94 91.2719 22.0981 91.2719 21.1429ZM91 14.8286C91 13.6143 91.2472 12.5781 91.7416 11.72C92.236 10.8457 92.8951 10.1738 93.7191 9.70429C94.5595 9.23476 95.4824 9 96.4876 9C97.4764 9 98.3251 9.25905 99.0337 9.77714C99.7423 10.279 100.294 10.9671 100.69 11.8414C101.102 12.7157 101.308 13.7114 101.308 14.8286C101.308 15.9295 101.102 16.9252 100.69 17.8157C100.294 18.69 99.7423 19.3862 99.0337 19.9043C98.3251 20.4062 97.4764 20.6571 96.4876 20.6571C95.4824 20.6571 94.5595 20.4224 93.7191 19.9529C92.8951 19.4833 92.236 18.8114 91.7416 17.9371C91.2472 17.0629 91 16.0267 91 14.8286ZM92.3101 14.8286C92.3101 15.8 92.4996 16.6338 92.8787 17.33C93.2742 18.0262 93.8015 18.5605 94.4607 18.9329C95.1363 19.2891 95.8697 19.4671 96.6607 19.4671C97.3693 19.4671 98.0285 19.2648 98.6382 18.86C99.2644 18.4552 99.767 17.9048 100.146 17.2086C100.525 16.4962 100.715 15.6867 100.715 14.78C100.715 14.1324 100.607 13.5333 100.393 12.9829C100.179 12.4324 99.8742 11.9467 99.4787 11.5257C99.0996 11.1048 98.6629 10.781 98.1685 10.5543C97.6906 10.3114 97.188 10.19 96.6607 10.19C95.8697 10.19 95.1363 10.3762 94.4607 10.7486C93.8015 11.1048 93.2742 11.631 92.8787 12.3271C92.4996 13.0233 92.3101 13.8571 92.3101 14.8286Z" fill="white"/>
<path d="M83.4236 21C82.3711 21 81.4375 20.7417 80.6227 20.225C79.8079 19.7083 79.1628 19 78.6875 18.1C78.2292 17.1833 78 16.1417 78 14.975C78 13.8083 78.2377 12.775 78.713 11.875C79.1883 10.975 79.8503 10.275 80.6991 9.775C81.5478 9.25833 82.5239 9 83.6273 9C84.6968 9 85.6304 9.24167 86.4282 9.725C87.2431 10.2083 87.8711 10.8833 88.3125 11.75C88.7708 12.6 89 13.5833 89 14.7C89 14.8 88.9915 14.9083 88.9745 15.025C88.9745 15.1417 88.9661 15.2417 88.9491 15.325H78.8403V14.2H87.956L87.3958 14.975C87.4298 14.8917 87.4637 14.7833 87.4977 14.65C87.5486 14.5 87.5741 14.3583 87.5741 14.225C87.5741 13.4417 87.3958 12.7417 87.0394 12.125C86.6998 11.5083 86.233 11.025 85.6389 10.675C85.0448 10.325 84.3742 10.15 83.6273 10.15C82.7616 10.15 82.0062 10.35 81.3611 10.75C80.733 11.1333 80.2407 11.6833 79.8843 12.4C79.5278 13.1 79.3495 13.9333 79.3495 14.9C79.3495 15.8833 79.5193 16.7417 79.8588 17.475C80.2153 18.2083 80.7076 18.775 81.3356 19.175C81.9807 19.575 82.7276 19.775 83.5764 19.775C84.4761 19.775 85.2569 19.5833 85.919 19.2C86.598 18.8167 87.2006 18.2167 87.7269 17.4L88.7963 18.075C88.1343 19.075 87.3619 19.8167 86.4792 20.3C85.6134 20.7667 84.5949 21 83.4236 21Z" fill="white"/>
<path d="M74 1H75V20H74V1Z" fill="white"/>
<path d="M62.3452 15C62.3452 15.9333 62.5482 16.7583 62.9543 17.475C63.3604 18.1917 63.9103 18.7583 64.6041 19.175C65.3147 19.575 66.11 19.775 66.9898 19.775C67.6159 19.775 68.1997 19.6833 68.7411 19.5C69.2826 19.3167 69.7479 19.0833 70.1371 18.8C70.5431 18.5 70.8308 18.2 71 17.9V19.525C70.6447 19.9417 70.0948 20.2917 69.3503 20.575C68.6227 20.8583 67.8359 21 66.9898 21C65.8562 21 64.8409 20.7417 63.9442 20.225C63.0474 19.7083 62.3283 19 61.7868 18.1C61.2623 17.1833 61 16.15 61 15C61 13.8333 61.2623 12.8 61.7868 11.9C62.3283 11 63.0474 10.2917 63.9442 9.775C64.8409 9.25833 65.8562 9 66.9898 9C67.8359 9 68.6227 9.15 69.3503 9.45C70.0948 9.73333 70.6447 10.075 71 10.475V12.1C70.8308 11.7833 70.5431 11.4833 70.1371 11.2C69.7479 10.9167 69.2826 10.6833 68.7411 10.5C68.1997 10.3167 67.6159 10.225 66.9898 10.225C66.11 10.225 65.3147 10.4333 64.6041 10.85C63.9103 11.25 63.3604 11.8083 62.9543 12.525C62.5482 13.2417 62.3452 14.0667 62.3452 15Z" fill="white"/>
<path d="M60 9L52.9577 26H51.5962L54.3662 19.325L50 9H51.4554L55.3756 18.8L54.8122 18.75L58.6385 9H60Z" fill="white"/>
<path d="M35.4568 12C35.4568 13.4875 35.7695 14.7994 36.3951 15.9359C37.0206 17.0724 37.8601 17.9666 38.9136 18.6184C39.9671 19.2702 41.144 19.5961 42.4444 19.5961C43.2675 19.5961 44.0165 19.5042 44.6914 19.3203C45.3663 19.1365 45.9753 18.8607 46.5185 18.493C47.0782 18.1253 47.572 17.6908 48 17.1894V19.0446C47.2757 19.6964 46.4856 20.1894 45.6296 20.5237C44.7737 20.8412 43.7119 21 42.4444 21C41.2428 21 40.1235 20.7827 39.0864 20.3482C38.0658 19.8969 37.177 19.2702 36.4198 18.468C35.6626 17.6657 35.07 16.7131 34.642 15.61C34.214 14.507 34 13.3036 34 12C34 10.6964 34.214 9.49304 34.642 8.38997C35.07 7.28691 35.6626 6.33426 36.4198 5.53203C37.177 4.72981 38.0658 4.11142 39.0864 3.67688C40.1235 3.22563 41.2428 3 42.4444 3C43.7119 3 44.7737 3.16713 45.6296 3.50139C46.4856 3.81894 47.2757 4.30362 48 4.95543V6.78552C47.572 6.28412 47.0782 5.85794 46.5185 5.50696C45.9588 5.13928 45.3416 4.86351 44.6667 4.67967C43.9918 4.49582 43.251 4.4039 42.4444 4.4039C41.144 4.4039 39.9671 4.7298 38.9136 5.38162C37.8601 6.01671 37.0206 6.90251 36.3951 8.039C35.7695 9.17549 35.4568 10.4958 35.4568 12Z" fill="white"/>
</svg>
