<svg width="149" height="30" viewBox="0 0 149 30" fill="none" xmlns="http://www.w3.org/2000/svg">
<path d="M142.024 24.6866L138.085 18.841V24.6866H133.104V5.87891H138.085V16.0198L142.024 10.4283H147.997L142.38 17.5956L148.099 24.6866H142.024Z" fill="white"/>
<path d="M125.497 24.8661C124.209 24.8661 123.057 24.6543 122.04 24.2307C121.041 23.7901 120.244 23.1971 119.651 22.4516C119.075 21.6891 118.753 20.8334 118.686 19.8846H123.515C123.582 20.342 123.794 20.6979 124.15 20.952C124.506 21.2062 124.946 21.3333 125.472 21.3333C125.878 21.3333 126.2 21.2485 126.437 21.0791C126.675 20.9097 126.793 20.6894 126.793 20.4183C126.793 20.0625 126.598 19.7998 126.209 19.6304C125.819 19.461 125.175 19.2746 124.277 19.0713C123.26 18.8679 122.413 18.6392 121.735 18.385C121.058 18.1309 120.465 17.7157 119.956 17.1396C119.465 16.5636 119.219 15.7841 119.219 14.8014C119.219 13.9542 119.448 13.1917 119.906 12.514C120.363 11.8193 121.032 11.2686 121.913 10.8619C122.811 10.4553 123.887 10.252 125.141 10.252C127.005 10.252 128.471 10.7094 129.538 11.6244C130.606 12.5394 131.224 13.7424 131.393 15.2335H126.895C126.81 14.776 126.607 14.4286 126.285 14.1914C125.98 13.9373 125.565 13.8102 125.04 13.8102C124.633 13.8102 124.319 13.8864 124.099 14.0389C123.896 14.1914 123.794 14.4032 123.794 14.6743C123.794 15.0132 123.989 15.2758 124.379 15.4622C124.768 15.6316 125.395 15.8096 126.259 15.9959C127.293 16.2162 128.149 16.4619 128.826 16.733C129.521 17.0041 130.123 17.4446 130.631 18.0546C131.156 18.6477 131.419 19.461 131.419 20.4945C131.419 21.3248 131.173 22.0703 130.682 22.7311C130.207 23.3919 129.521 23.9172 128.623 24.3069C127.742 24.6797 126.7 24.8661 125.497 24.8661Z" fill="white"/>
<path d="M118.145 17.3938C118.145 17.7835 118.12 18.1732 118.069 18.5629H108.64C108.69 19.3424 108.902 19.9269 109.275 20.3166C109.665 20.6894 110.156 20.8758 110.749 20.8758C111.579 20.8758 112.172 20.503 112.528 19.7575H117.84C117.62 20.7402 117.188 21.6213 116.544 22.4007C115.917 23.1632 115.121 23.7647 114.155 24.2053C113.189 24.6458 112.122 24.8661 110.953 24.8661C109.546 24.8661 108.292 24.5695 107.191 23.9765C106.107 23.3835 105.251 22.5363 104.624 21.4349C104.014 20.3336 103.709 19.0374 103.709 17.5463C103.709 16.0552 104.014 14.7675 104.624 13.6831C105.234 12.5817 106.081 11.7345 107.166 11.1415C108.267 10.5485 109.529 10.252 110.953 10.252C112.359 10.252 113.604 10.54 114.689 11.1161C115.773 11.6922 116.62 12.5224 117.23 13.6068C117.84 14.6743 118.145 15.9366 118.145 17.3938ZM113.062 16.1484C113.062 15.5385 112.859 15.064 112.452 14.7251C112.045 14.3693 111.537 14.1914 110.927 14.1914C110.317 14.1914 109.817 14.3608 109.428 14.6997C109.038 15.0217 108.784 15.5046 108.665 16.1484H113.062Z" fill="white"/>
<path d="M87.1992 17.5448C87.1992 16.0707 87.4619 14.7829 87.9871 13.6816C88.5293 12.5802 89.2664 11.733 90.1983 11.14C91.1302 10.547 92.1638 10.2504 93.299 10.2504C94.214 10.2504 95.0273 10.4453 95.7389 10.835C96.4675 11.2078 97.0352 11.7246 97.4418 12.3854V5.87891H102.449V24.6866H97.4418V22.7042C97.0521 23.365 96.5014 23.8903 95.7898 24.28C95.0781 24.6697 94.2394 24.8645 93.2736 24.8645C92.1384 24.8645 91.1048 24.568 90.1729 23.975C89.2579 23.382 88.5293 22.5348 87.9871 21.4334C87.4619 20.3151 87.1992 19.0189 87.1992 17.5448ZM97.4672 17.5448C97.4672 16.6298 97.2131 15.9097 96.7047 15.3844C96.2134 14.8592 95.6034 14.5965 94.8748 14.5965C94.1293 14.5965 93.5108 14.8592 93.0195 15.3844C92.5281 15.8928 92.2824 16.6129 92.2824 17.5448C92.2824 18.4598 92.5281 19.1883 93.0195 19.7305C93.5108 20.2558 94.1293 20.5184 94.8748 20.5184C95.6034 20.5184 96.2134 20.2558 96.7047 19.7305C97.2131 19.2053 97.4672 18.4767 97.4672 17.5448Z" fill="white"/>
<path d="M87.3563 10.4316L83.7218 24.6899H78.1303L76.1479 16.0485L74.0892 24.6899H68.5231L64.9141 10.4316H69.8702L71.4714 19.8863L73.5809 10.4316H78.9182L81.104 19.9118L82.6797 10.4316H87.3563Z" fill="white"/>
<path d="M57.525 24.8661C56.1017 24.8661 54.8224 24.5695 53.6872 23.9765C52.5689 23.3835 51.6878 22.5363 51.0439 21.4349C50.4001 20.3336 50.0781 19.0374 50.0781 17.5463C50.0781 16.0722 50.4001 14.7844 51.0439 13.6831C51.7047 12.5817 52.5943 11.7345 53.7126 11.1415C54.8478 10.5485 56.1271 10.252 57.5504 10.252C58.9737 10.252 60.2445 10.5485 61.3628 11.1415C62.498 11.7345 63.3876 12.5817 64.0314 13.6831C64.6922 14.7844 65.0226 16.0722 65.0226 17.5463C65.0226 19.0204 64.6922 20.3166 64.0314 21.4349C63.3876 22.5363 62.498 23.3835 61.3628 23.9765C60.2275 24.5695 58.9483 24.8661 57.525 24.8661ZM57.525 20.5454C58.2197 20.5454 58.7958 20.2912 59.2532 19.7829C59.7277 19.2576 59.9649 18.5121 59.9649 17.5463C59.9649 16.5805 59.7277 15.8434 59.2532 15.3351C58.7958 14.8268 58.2281 14.5726 57.5504 14.5726C56.8726 14.5726 56.305 14.8268 55.8475 15.3351C55.39 15.8434 55.1613 16.5805 55.1613 17.5463C55.1613 18.529 55.3816 19.2746 55.8221 19.7829C56.2626 20.2912 56.8303 20.5454 57.525 20.5454Z" fill="white"/>
<path d="M48.8155 5.87891V24.6866H43.834V5.87891H48.8155Z" fill="white"/>
<path d="M42.8173 14.5724H40.5807V24.6879H35.5738V14.5724H34.0234V10.4296H35.5738V10.3025C35.5738 8.47256 36.1075 7.07469 37.175 6.10889C38.2594 5.12614 39.8098 4.63477 41.8261 4.63477C42.2328 4.63477 42.5462 4.64324 42.7665 4.66018V8.90463C42.6309 8.88768 42.4446 8.87921 42.2073 8.87921C41.6651 8.87921 41.267 9.00629 41.0128 9.26045C40.7586 9.49766 40.6146 9.88737 40.5807 10.4296H42.8173V14.5724Z" fill="white"/>
<path d="M11.4766 0C18.0907 5.7823e-07 29.7722 6.30043 29.7725 14.3213C29.7725 22.3423 14.7568 29.0469 8.14258 29.0469C1.52873 29.0465 -7.01201e-07 22.3421 0 14.3213C0.000115728 6.30055 4.86254 0.000197289 11.4766 0ZM20.4189 9.86816C19.5818 9.03098 18.2239 9.03098 17.3867 9.86816L12.7773 14.4756L10.7119 12.4092C9.87479 11.5721 8.51688 11.5722 7.67969 12.4092C6.84251 13.2464 6.84252 14.6042 7.67969 15.4414L10.7119 18.4727C10.8664 18.6271 11.0383 18.7531 11.2217 18.8506C11.2546 18.8884 11.2873 18.9269 11.3232 18.9629C12.1604 19.8001 13.5183 19.8001 14.3555 18.9629L20.4189 12.8994C21.256 12.0623 21.2558 10.7054 20.4189 9.86816Z" fill="white"/>
</svg>
