<svg width="150" height="23" viewBox="0 0 150 23" fill="none" xmlns="http://www.w3.org/2000/svg">
<path d="M137.959 13.6426V11.3618L144.739 1.6582H148.119V11.113H149.943V13.6426H148.119V16.5868H145.216V13.6426H137.959ZM145.403 4.76833L141.152 11.113H145.403V4.76833Z" fill="white"/>
<path d="M127.095 13.3116C128.422 12.2058 129.479 11.2865 130.267 10.5539C131.055 9.80751 131.712 9.03344 132.237 8.23171C132.762 7.42999 133.025 6.64209 133.025 5.86802C133.025 5.16306 132.859 4.61015 132.527 4.20928C132.196 3.80842 131.684 3.60799 130.993 3.60799C130.302 3.60799 129.77 3.84298 129.396 4.31296C129.023 4.76911 128.83 5.39804 128.816 6.19976H125.996C126.051 4.54103 126.542 3.28316 127.468 2.42614C128.408 1.56913 129.597 1.14062 131.034 1.14062C132.61 1.14062 133.82 1.56222 134.663 2.40541C135.506 3.23478 135.928 4.33369 135.928 5.70214C135.928 6.78032 135.637 7.81012 135.057 8.79154C134.476 9.77295 133.813 10.63 133.066 11.3626C132.32 12.0814 131.346 12.9522 130.143 13.9751H136.26V16.3802H126.017V14.2239L127.095 13.3116Z" fill="white"/>
<path d="M121.203 16.5874L117.305 11.6942V16.5874H114.402V1.24414H117.305V9.97323L121.162 5.1007H124.935L119.876 10.8648L124.977 16.5874H121.203Z" fill="white"/>
<path d="M112.286 10.5952C112.286 11.0099 112.258 11.3831 112.203 11.7149H103.806C103.875 12.5442 104.165 13.1939 104.676 13.6639C105.188 14.1339 105.817 14.3688 106.563 14.3688C107.641 14.3688 108.409 13.9058 108.865 12.9797H111.996C111.664 14.0855 111.028 14.9978 110.088 15.7166C109.148 16.4215 107.994 16.774 106.625 16.774C105.52 16.774 104.524 16.5321 103.64 16.0483C102.769 15.5507 102.085 14.8526 101.587 13.9542C101.103 13.0557 100.861 12.019 100.861 10.844C100.861 9.65528 101.103 8.61166 101.587 7.71318C102.071 6.8147 102.748 6.12356 103.619 5.63976C104.49 5.15596 105.492 4.91406 106.625 4.91406C107.717 4.91406 108.692 5.14905 109.549 5.61902C110.42 6.089 111.09 6.7594 111.56 7.63024C112.044 8.48725 112.286 9.47558 112.286 10.5952ZM109.279 9.76586C109.266 9.01943 108.996 8.42505 108.471 7.98272C107.946 7.52657 107.303 7.29849 106.542 7.29849C105.824 7.29849 105.216 7.51966 104.718 7.96199C104.234 8.39049 103.937 8.99178 103.826 9.76586H109.279Z" fill="white"/>
<path d="M99.4909 10.5952C99.4909 11.0099 99.4633 11.3831 99.408 11.7149H91.0107C91.0798 12.5442 91.3701 13.1939 91.8815 13.6639C92.3929 14.1339 93.0219 14.3688 93.7683 14.3688C94.8465 14.3688 95.6136 13.9058 96.0698 12.9797H99.2007C98.8689 14.0855 98.2331 14.9978 97.2931 15.7166C96.3532 16.4215 95.199 16.774 93.8305 16.774C92.7247 16.774 91.7294 16.5321 90.8448 16.0483C89.974 15.5507 89.2897 14.8526 88.7921 13.9542C88.3083 13.0557 88.0664 12.019 88.0664 10.844C88.0664 9.65528 88.3083 8.61166 88.7921 7.71318C89.2759 6.8147 89.9532 6.12356 90.8241 5.63976C91.6949 5.15596 92.697 4.91406 93.8305 4.91406C94.9225 4.91406 95.897 5.14905 96.754 5.61902C97.6249 6.089 98.2953 6.7594 98.7652 7.63024C99.249 8.48725 99.4909 9.47558 99.4909 10.5952ZM96.4845 9.76586C96.4707 9.01943 96.2011 8.42505 95.6758 7.98272C95.1506 7.52657 94.5078 7.29849 93.7476 7.29849C93.0288 7.29849 92.4206 7.51966 91.923 7.96199C91.4392 8.39049 91.142 8.99178 91.0314 9.76586H96.4845Z" fill="white"/>
<path d="M84.1474 7.48478V13.0415C84.1474 13.4286 84.2373 13.7119 84.417 13.8916C84.6105 14.0575 84.9284 14.1404 85.3708 14.1404H86.7185V16.5871H84.8939C82.4472 16.5871 81.2239 15.3983 81.2239 13.0208V7.48478H79.8555V5.10035H81.2239V2.25977H84.1474V5.10035H86.7185V7.48478H84.1474Z" fill="white"/>
<path d="M72.6466 16.774C71.5408 16.774 70.5456 16.5321 69.6609 16.0483C68.7762 15.5507 68.0782 14.8526 67.5667 13.9542C67.0691 13.0557 66.8203 12.019 66.8203 10.844C66.8203 9.6691 67.076 8.63239 67.5875 7.73391C68.1127 6.83543 68.8246 6.14429 69.7231 5.66049C70.6216 5.16287 71.6237 4.91406 72.7296 4.91406C73.8354 4.91406 74.8375 5.16287 75.736 5.66049C76.6345 6.14429 77.3395 6.83543 77.8509 7.73391C78.3762 8.63239 78.6388 9.6691 78.6388 10.844C78.6388 12.019 78.3692 13.0557 77.8302 13.9542C77.3049 14.8526 76.5861 15.5507 75.6738 16.0483C74.7753 16.5321 73.7663 16.774 72.6466 16.774ZM72.6466 14.2444C73.1719 14.2444 73.6626 14.12 74.1187 13.8712C74.5887 13.6086 74.9619 13.2216 75.2384 12.7101C75.5148 12.1987 75.6531 11.5766 75.6531 10.844C75.6531 9.75204 75.3628 8.91576 74.7822 8.3352C74.2155 7.74082 73.5175 7.44363 72.6881 7.44363C71.8587 7.44363 71.1607 7.74082 70.5939 8.3352C70.041 8.91576 69.7646 9.75204 69.7646 10.844C69.7646 11.936 70.0341 12.7792 70.5732 13.3736C71.1261 13.9542 71.8173 14.2444 72.6466 14.2444Z" fill="white"/>
<path d="M56.3989 6.7594C56.7721 6.23414 57.2835 5.79872 57.9332 5.45315C58.5967 5.09376 59.35 4.91406 60.1932 4.91406C61.1747 4.91406 62.0593 5.15596 62.8472 5.63976C63.6489 6.12356 64.2779 6.8147 64.734 7.71318C65.204 8.59783 65.439 9.62763 65.439 10.8026C65.439 11.9775 65.204 13.0211 64.734 13.9334C64.2779 14.8319 63.6489 15.53 62.8472 16.0276C62.0593 16.5252 61.1747 16.774 60.1932 16.774C59.35 16.774 58.6036 16.6012 57.9539 16.2557C57.3181 15.9101 56.7997 15.4747 56.3989 14.9494V22.0612H53.4961V5.10067H56.3989V6.7594ZM62.474 10.8026C62.474 10.1114 62.3289 9.51705 62.0386 9.01943C61.7621 8.50799 61.3889 8.12095 60.9189 7.85832C60.4628 7.59568 59.9652 7.46437 59.4261 7.46437C58.9008 7.46437 58.4032 7.60259 57.9332 7.87905C57.4771 8.14168 57.1038 8.52872 56.8136 9.04016C56.5371 9.55161 56.3989 10.1529 56.3989 10.844C56.3989 11.5352 56.5371 12.1365 56.8136 12.6479C57.1038 13.1594 57.4771 13.5533 57.9332 13.8298C58.4032 14.0924 58.9008 14.2237 59.4261 14.2237C59.9652 14.2237 60.4628 14.0855 60.9189 13.809C61.3889 13.5326 61.7621 13.1386 62.0386 12.6272C62.3289 12.1157 62.474 11.5075 62.474 10.8026Z" fill="white"/>
<path d="M50.6332 5.10071V16.5874H47.7097V15.1361C47.3365 15.6337 46.8457 16.0276 46.2375 16.3179C45.6432 16.5944 44.9935 16.7326 44.2885 16.7326C43.3901 16.7326 42.5952 16.546 41.9041 16.1728C41.213 15.7857 40.667 15.2259 40.2661 14.4933C39.8791 13.7469 39.6855 12.8622 39.6855 11.8393V5.10071H42.5883V11.4246C42.5883 12.3369 42.8164 13.0419 43.2726 13.5395C43.7287 14.0233 44.3507 14.2652 45.1386 14.2652C45.9404 14.2652 46.5693 14.0233 47.0254 13.5395C47.4816 13.0419 47.7097 12.3369 47.7097 11.4246V5.10071H50.6332ZM43.2933 3.73225C42.9063 3.73225 42.5814 3.60094 42.3188 3.3383C42.0562 3.07567 41.9248 2.75084 41.9248 2.3638C41.9248 1.97676 42.0562 1.65192 42.3188 1.38929C42.5814 1.11284 42.9063 0.974609 43.2933 0.974609C43.6803 0.974609 44.0052 1.11284 44.2678 1.38929C44.5443 1.65192 44.6825 1.97676 44.6825 2.3638C44.6825 2.75084 44.5443 3.07567 44.2678 3.3383C44.0052 3.60094 43.6803 3.73225 43.2933 3.73225ZM47.1291 3.73225C46.7421 3.73225 46.4172 3.60094 46.1546 3.3383C45.892 3.07567 45.7607 2.75084 45.7607 2.3638C45.7607 1.97676 45.892 1.65192 46.1546 1.38929C46.4172 1.11284 46.7421 0.974609 47.1291 0.974609C47.5162 0.974609 47.841 1.11284 48.1036 1.38929C48.3801 1.65192 48.5183 1.97676 48.5183 2.3638C48.5183 2.75084 48.3801 3.07567 48.1036 3.3383C47.841 3.60094 47.5162 3.73225 47.1291 3.73225Z" fill="white"/>
<path d="M36.9309 2.11523V16.5877H34.0281V10.4296H27.8286V16.5877H24.9258V2.11523H27.8286V8.06594H34.0281V2.11523H36.9309Z" fill="white"/>
<path d="M0 10.3452C4.38219 10.7956 7.86513 14.2786 8.31552 18.6608H0V10.3452ZM18.6608 18.6608H17.3487C16.8633 9.30072 9.36004 1.79744 0 1.31208V0H18.6608V18.6608Z" fill="white"/>
</svg>
