<svg width="40" height="40" viewBox="0 0 40 40" fill="none" xmlns="http://www.w3.org/2000/svg">
<path d="M20 0C29.4386 0 37.3488 6.53857 39.4512 15.333C39.1676 15.0731 38.8631 14.8225 38.5332 14.5869C37.4082 13.7718 36.0442 13.1403 34.4424 12.6914C32.8406 12.2307 31.0311 12 29.0137 12C26.2134 12 23.8778 12.4257 22.0068 13.2764C20.136 14.1152 18.7107 15.2367 17.7324 16.6426C16.7665 18.0366 16.2229 19.561 16.1006 21.2148H25.418C25.5403 20.3762 25.9019 19.7561 26.501 19.3545C27.1123 18.9412 27.9005 18.7344 28.8662 18.7344C29.7466 18.7344 30.4688 18.9228 31.0312 19.3008C31.5937 19.6788 31.875 20.2228 31.875 20.9316V21.0029C31.8749 21.5226 31.6603 21.9418 31.2324 22.2607C30.8044 22.5678 30.1074 22.8101 29.1416 22.9873C28.1878 23.1527 26.9221 23.295 25.3447 23.4131C23.8897 23.5194 22.5319 23.7491 21.2725 24.1035C20.0253 24.4579 18.9307 24.9722 17.9893 25.6455C17.0478 26.3189 16.3139 27.1878 15.7881 28.251C15.2625 29.3023 15 30.5722 15 32.0605C15 33.8681 15.3913 35.3568 16.1738 36.5264C16.9564 37.696 18.0328 38.5705 19.4023 39.1494C20.26 39.5014 21.198 39.7425 22.2158 39.876C21.4882 39.9562 20.749 40 20 40C8.95431 40 0 31.0457 0 20C0 8.95431 8.95431 0 20 0ZM32.3311 35.7471C32.3217 35.7544 32.3121 35.7613 32.3027 35.7686C32.3068 35.7613 32.3114 35.7544 32.3154 35.7471H32.3311ZM31.9482 29.9346C31.9482 30.7613 31.7344 31.4642 31.3066 32.043C30.8787 32.6219 30.3215 33.0649 29.6367 33.3721C28.9642 33.6792 28.2429 33.833 27.4727 33.833C26.6167 33.833 25.9135 33.6321 25.3633 33.2305C24.813 32.8288 24.5381 32.2493 24.5381 31.4932C24.5382 31.0208 24.6545 30.5957 24.8867 30.2178C25.1313 29.8279 25.4982 29.5031 25.9873 29.2432C26.4886 28.9715 27.1306 28.7763 27.9131 28.6582C28.3165 28.5991 28.7016 28.5338 29.0684 28.4629C29.4473 28.392 29.8018 28.3151 30.1318 28.2324C30.4742 28.1497 30.7925 28.0613 31.0859 27.9668C31.3916 27.8723 31.6792 27.7723 31.9482 27.666V29.9346Z" fill="white"/>
</svg>
