<svg width="525" height="196" viewBox="0 0 525 196" fill="none" xmlns="http://www.w3.org/2000/svg">
<rect width="525" height="196" rx="20" fill="#0B0F1B"/>
<path d="M44.5772 116.956L0 94.6607V191.603H525V129.598H458.648C452.693 129.598 446.814 130.928 441.439 133.489L399.813 153.328C384.931 160.42 367.222 157.656 355.21 146.365L319.89 113.169C307.993 101.987 290.493 99.1581 275.678 106.023L254.481 115.845C237.214 123.847 216.701 118.575 205.431 103.24L182.372 71.863C166.175 49.8227 133.129 50.1769 117.408 72.5594L95.2028 104.173C83.8194 120.379 62.2901 125.816 44.5772 116.956Z" fill="url(#paint0_linear_4013_129)" fill-opacity="0.6"/>
<path d="M58.4732 80.3148L0.492188 107.579V196H523.772V141.289H472.531C458.017 141.289 444.641 133.427 437.581 120.745L404.381 61.1024C390.256 35.7282 354.65 33.3889 337.327 56.6969L305.626 99.3496C301.613 104.749 296.303 109.048 290.188 111.851L241.32 134.25C230.797 139.073 218.7 139.101 208.155 134.326L149.078 107.579L92.8637 80.4806C82.0102 75.2486 69.3766 75.1877 58.4732 80.3148Z" fill="url(#paint1_linear_4013_129)" fill-opacity="0.6"/>
<path d="M475.637 165.358L470.793 158.17V165.358H464.668V142.232H470.793V154.702L475.637 147.826H482.981L476.075 156.639L483.106 165.358H475.637Z" fill="#E8ECF4"/>
<path d="M455.309 165.577C453.726 165.577 452.309 165.316 451.059 164.796C449.83 164.254 448.85 163.525 448.121 162.608C447.413 161.67 447.017 160.618 446.934 159.452H452.871C452.955 160.014 453.215 160.452 453.653 160.764C454.09 161.077 454.632 161.233 455.278 161.233C455.778 161.233 456.174 161.129 456.465 160.92C456.757 160.712 456.903 160.441 456.903 160.108C456.903 159.67 456.663 159.347 456.184 159.139C455.705 158.931 454.913 158.702 453.809 158.452C452.559 158.202 451.517 157.92 450.684 157.608C449.85 157.295 449.121 156.785 448.496 156.076C447.892 155.368 447.59 154.41 447.59 153.201C447.59 152.16 447.871 151.222 448.434 150.389C448.996 149.535 449.819 148.857 450.902 148.357C452.007 147.857 453.33 147.607 454.871 147.607C457.163 147.607 458.965 148.17 460.278 149.295C461.59 150.42 462.351 151.899 462.559 153.733H457.028C456.924 153.17 456.674 152.743 456.278 152.451C455.903 152.139 455.392 151.983 454.746 151.983C454.246 151.983 453.861 152.076 453.59 152.264C453.34 152.451 453.215 152.712 453.215 153.045C453.215 153.462 453.455 153.785 453.934 154.014C454.413 154.222 455.184 154.441 456.246 154.67C457.517 154.941 458.569 155.243 459.403 155.576C460.257 155.91 460.997 156.451 461.622 157.202C462.267 157.931 462.59 158.931 462.59 160.202C462.59 161.222 462.288 162.139 461.684 162.952C461.101 163.764 460.257 164.41 459.153 164.889C458.069 165.348 456.788 165.577 455.309 165.577Z" fill="#E8ECF4"/>
<path d="M446.27 156.389C446.27 156.868 446.239 157.347 446.176 157.827H434.582C434.645 158.785 434.905 159.504 435.364 159.983C435.843 160.441 436.447 160.67 437.176 160.67C438.197 160.67 438.926 160.212 439.364 159.295H445.895C445.624 160.504 445.093 161.587 444.301 162.545C443.53 163.483 442.551 164.223 441.364 164.764C440.176 165.306 438.864 165.577 437.426 165.577C435.697 165.577 434.155 165.212 432.801 164.483C431.468 163.754 430.415 162.712 429.645 161.358C428.895 160.004 428.52 158.41 428.52 156.576C428.52 154.743 428.895 153.16 429.645 151.826C430.395 150.472 431.436 149.43 432.77 148.701C434.124 147.972 435.676 147.607 437.426 147.607C439.155 147.607 440.687 147.962 442.02 148.67C443.353 149.378 444.395 150.399 445.145 151.733C445.895 153.045 446.27 154.597 446.27 156.389ZM440.02 154.858C440.02 154.108 439.77 153.524 439.27 153.108C438.77 152.67 438.145 152.451 437.395 152.451C436.645 152.451 436.03 152.66 435.551 153.076C435.072 153.472 434.759 154.066 434.614 154.858H440.02Z" fill="#E8ECF4"/>
<path d="M408.219 156.577C408.219 154.764 408.542 153.181 409.188 151.827C409.854 150.472 410.761 149.431 411.906 148.701C413.052 147.972 414.323 147.608 415.719 147.608C416.844 147.608 417.844 147.847 418.719 148.326C419.615 148.785 420.313 149.42 420.813 150.233V142.232H426.969V165.358H420.813V162.921C420.334 163.733 419.657 164.379 418.782 164.858C417.907 165.337 416.875 165.577 415.688 165.577C414.292 165.577 413.021 165.212 411.875 164.483C410.75 163.754 409.854 162.712 409.188 161.358C408.542 159.983 408.219 158.389 408.219 156.577ZM420.844 156.577C420.844 155.452 420.532 154.566 419.907 153.92C419.302 153.274 418.552 152.952 417.657 152.952C416.74 152.952 415.979 153.274 415.375 153.92C414.771 154.545 414.469 155.431 414.469 156.577C414.469 157.702 414.771 158.598 415.375 159.264C415.979 159.91 416.74 160.233 417.657 160.233C418.552 160.233 419.302 159.91 419.907 159.264C420.532 158.618 420.844 157.723 420.844 156.577Z" fill="#E8ECF4"/>
<path d="M408.415 147.828L403.946 165.36H397.071L394.633 154.735L392.102 165.36H385.258L380.82 147.828H386.914L388.883 159.454L391.477 147.828H398.04L400.727 159.485L402.665 147.828H408.415Z" fill="#E8ECF4"/>
<path d="M371.731 165.577C369.981 165.577 368.408 165.212 367.012 164.483C365.637 163.754 364.553 162.712 363.762 161.358C362.97 160.004 362.574 158.41 362.574 156.576C362.574 154.764 362.97 153.181 363.762 151.826C364.574 150.472 365.668 149.43 367.043 148.701C368.439 147.972 370.012 147.607 371.762 147.607C373.512 147.607 375.075 147.972 376.45 148.701C377.846 149.43 378.939 150.472 379.731 151.826C380.544 153.181 380.95 154.764 380.95 156.576C380.95 158.389 380.544 159.983 379.731 161.358C378.939 162.712 377.846 163.754 376.45 164.483C375.054 165.212 373.481 165.577 371.731 165.577ZM371.731 160.264C372.585 160.264 373.293 159.952 373.856 159.327C374.439 158.681 374.731 157.764 374.731 156.576C374.731 155.389 374.439 154.483 373.856 153.858C373.293 153.233 372.595 152.92 371.762 152.92C370.929 152.92 370.231 153.233 369.668 153.858C369.106 154.483 368.824 155.389 368.824 156.576C368.824 157.785 369.095 158.702 369.637 159.327C370.179 159.952 370.877 160.264 371.731 160.264Z" fill="#E8ECF4"/>
<path d="M361.024 142.232V165.358H354.898V142.232H361.024Z" fill="#E8ECF4"/>
<path d="M353.649 152.92H350.899V165.358H344.742V152.92H342.836V147.826H344.742V147.67C344.742 145.42 345.399 143.701 346.711 142.514C348.044 141.305 349.951 140.701 352.43 140.701C352.93 140.701 353.315 140.712 353.586 140.732V145.951C353.42 145.931 353.19 145.92 352.899 145.92C352.232 145.92 351.743 146.076 351.43 146.389C351.117 146.681 350.94 147.16 350.899 147.826H353.649V152.92Z" fill="#E8ECF4"/>
<path d="M315.112 135C323.245 135 337.608 142.747 337.608 152.609C337.608 162.472 319.146 170.716 311.013 170.716C302.88 170.716 301 162.472 301 152.609C301 142.747 306.979 135 315.112 135ZM326.106 147.134C325.077 146.104 323.408 146.105 322.379 147.134L316.71 152.802L314.169 150.261C313.14 149.232 311.471 149.232 310.441 150.261C309.412 151.29 309.412 152.96 310.441 153.989L314.169 157.717C314.36 157.908 314.574 158.063 314.802 158.184C314.841 158.229 314.88 158.275 314.923 158.317C315.952 159.347 317.621 159.346 318.65 158.317L326.106 150.861C327.136 149.832 327.136 148.163 326.106 147.134Z" fill="#E8ECF4"/>
<defs>
<linearGradient id="paint0_linear_4013_129" x1="262.5" y1="-92.855" x2="262.5" y2="180.004" gradientUnits="userSpaceOnUse">
<stop stop-color="#597BF7"/>
<stop offset="1" stop-color="#597BF7" stop-opacity="0"/>
</linearGradient>
<linearGradient id="paint1_linear_4013_129" x1="262.132" y1="-94.6842" x2="262.05" y2="168.921" gradientUnits="userSpaceOnUse">
<stop stop-color="#00FF00"/>
<stop offset="1" stop-color="#54B684" stop-opacity="0"/>
</linearGradient>
</defs>
</svg>
