<svg width="525" height="196" viewBox="0 0 525 196" fill="none" xmlns="http://www.w3.org/2000/svg">
<rect width="525" height="196" rx="20" fill="#0B0F1B"/>
<path d="M77 116.835L92.9091 107.096C112.127 95.3326 136.218 94.9332 155.815 106.053L170.948 114.64C181.402 120.572 194.265 120.299 204.457 113.929C217.396 105.842 234.206 107.765 244.983 118.566L246.409 119.994C263.231 136.852 291.58 132.538 302.627 111.44L304.096 108.633C311.913 93.7035 328.709 85.7983 345.195 89.2892L363.457 93.156C383.956 97.4965 405.263 91.2291 420.147 76.4808L461 36" stroke="url(#paint0_linear_4013_130)" stroke-opacity="0.5" stroke-width="20" stroke-linecap="round"/>
<path d="M492.832 143.957H495.706V159.085C495.706 159.782 495.811 160.226 496.02 160.418C496.229 160.609 496.49 160.705 496.804 160.705C497.152 160.705 497.474 160.67 497.77 160.601C498.084 160.531 498.354 160.444 498.58 160.339L498.998 162.613C498.58 162.787 498.084 162.935 497.509 163.057C496.934 163.179 496.42 163.24 495.967 163.24C494.992 163.24 494.226 162.97 493.668 162.43C493.111 161.872 492.832 161.106 492.832 160.13V143.957Z" fill="#E8ECF4"/>
<path d="M484.977 143.957H487.851V159.085C487.851 159.782 487.955 160.226 488.164 160.418C488.373 160.609 488.635 160.705 488.948 160.705C489.296 160.705 489.619 160.67 489.915 160.601C490.228 160.531 490.498 160.444 490.725 160.339L491.143 162.613C490.725 162.787 490.228 162.935 489.654 163.057C489.079 163.179 488.565 163.24 488.112 163.24C487.136 163.24 486.37 162.97 485.813 162.43C485.255 161.872 484.977 161.106 484.977 160.13V143.957Z" fill="#E8ECF4"/>
<path d="M475.608 163.29C474.546 163.29 473.579 163.108 472.708 162.742C471.854 162.359 471.114 161.845 470.487 161.2C469.86 160.538 469.372 159.789 469.024 158.953C468.693 158.1 468.527 157.194 468.527 156.236C468.527 154.947 468.823 153.771 469.416 152.708C470.008 151.629 470.835 150.766 471.898 150.122C472.96 149.46 474.206 149.129 475.634 149.129C477.063 149.129 478.291 149.46 479.318 150.122C480.363 150.766 481.173 151.62 481.748 152.682C482.323 153.745 482.61 154.886 482.61 156.105C482.61 156.314 482.602 156.515 482.584 156.706C482.567 156.88 482.55 157.028 482.532 157.15H471.584C471.637 157.952 471.854 158.657 472.238 159.267C472.638 159.859 473.143 160.329 473.753 160.678C474.363 161.009 475.016 161.174 475.713 161.174C476.479 161.174 477.202 160.982 477.881 160.599C478.578 160.216 479.048 159.711 479.292 159.084L481.748 159.789C481.452 160.451 480.999 161.052 480.39 161.592C479.797 162.115 479.092 162.533 478.273 162.846C477.455 163.142 476.566 163.29 475.608 163.29ZM471.506 155.243H479.763C479.71 154.459 479.484 153.771 479.083 153.179C478.7 152.569 478.204 152.099 477.594 151.768C477.002 151.419 476.34 151.245 475.608 151.245C474.894 151.245 474.232 151.419 473.622 151.768C473.03 152.099 472.542 152.569 472.159 153.179C471.776 153.771 471.558 154.459 471.506 155.243Z" fill="#E8ECF4"/>
<path d="M465.323 163.031L460.934 156.734L458.687 158.876V163.031H455.812V143.957H458.687V155.976L465.01 149.392H468.093L462.789 155.114L468.38 163.031H465.323Z" fill="#E8ECF4"/>
<path d="M441.999 166.244C442.26 166.279 442.513 166.314 442.756 166.349C443.018 166.401 443.227 166.427 443.383 166.427C443.68 166.427 443.932 166.331 444.141 166.14C444.368 165.965 444.594 165.634 444.821 165.147C445.047 164.659 445.326 163.954 445.657 163.03L440.039 149.365H443.044L447.224 160.104L450.935 149.365H453.704L447.512 166.192C447.32 166.697 447.041 167.159 446.676 167.577C446.31 168.012 445.857 168.352 445.317 168.596C444.777 168.84 444.141 168.961 443.41 168.961C443.201 168.961 442.983 168.944 442.756 168.909C442.53 168.874 442.277 168.822 441.999 168.752V166.244Z" fill="#E8ECF4"/>
<path d="M437.705 144.479V163.03H434.753V154.851H425.399V163.03H422.473V144.479H425.399V152.239H434.753V144.479H437.705Z" fill="#E8ECF4"/>
<path d="M395.893 155.284C400.69 155.284 404.852 158.007 406.933 161.997C407.256 162.618 407.196 163.365 406.795 163.938C404.302 167.497 400.452 170.027 396 170.771C394.783 170.974 393.759 169.966 393.759 168.728V157.426C393.759 156.243 394.715 155.284 395.893 155.284ZM384.455 155.284C385.663 155.284 386.642 156.267 386.642 157.48V166.253C386.642 167.837 385.023 168.877 383.734 167.963C380.321 165.541 377.861 161.853 377.035 157.579C376.796 156.344 377.807 155.284 379.06 155.284H384.455ZM393.759 140.069C393.759 138.831 394.784 137.823 396 138.026C403.829 139.335 409.797 146.167 409.797 154.399C409.797 156.164 407.564 156.641 406.221 155.502C403.433 153.137 399.829 151.711 395.893 151.711C394.715 151.711 393.759 150.751 393.759 149.568V140.069ZM386.642 149.515C386.642 150.727 385.663 151.711 384.455 151.711H379.522C378.173 151.711 377.138 150.49 377.559 149.204C378.678 145.791 380.87 142.866 383.735 140.834C385.023 139.92 386.642 140.96 386.642 142.544V149.515Z" fill="#E8ECF4"/>
<defs>
<linearGradient id="paint0_linear_4013_130" x1="54.0328" y1="165.15" x2="611.37" y2="165.15" gradientUnits="userSpaceOnUse">
<stop stop-color="#FF0063"/>
<stop offset="1" stop-color="#3143BA"/>
</linearGradient>
</defs>
</svg>
