<svg width="525" height="196" viewBox="0 0 525 196" fill="none" xmlns="http://www.w3.org/2000/svg">
<rect width="525" height="196" rx="20" fill="#0B0F1B"/>
<path opacity="0.2" d="M264.217 74.6495C264.217 91.5542 250.513 105.258 233.609 105.258C216.704 105.258 203 91.5542 203 74.6495C203 57.7449 216.704 44.041 233.609 44.041C250.513 44.041 264.217 57.7449 264.217 74.6495Z" fill="#434B63"/>
<path d="M258.099 74.6489C258.099 88.1726 247.136 99.1358 233.612 99.1358C220.088 99.1358 209.125 88.1726 209.125 74.6489C209.125 61.1252 220.088 50.1621 233.612 50.1621C247.136 50.1621 258.099 61.1252 258.099 74.6489Z" fill="#434B63"/>
<path fill-rule="evenodd" clip-rule="evenodd" d="M236.672 82.3759C236.672 83.1179 237.635 83.4093 238.047 82.7919L244.057 73.7756C244.39 73.2772 244.032 72.6095 243.433 72.6095H238.713V66.9243C238.713 66.1823 237.751 65.8909 237.339 66.5083L231.328 75.5247C230.996 76.0231 231.353 76.6907 231.952 76.6907H236.672V82.3759Z" fill="#0B0F1B"/>
<path opacity="0.3" d="M231.09 79.751C231.918 79.7511 232.59 80.4228 232.59 81.251V81.3125C232.59 82.1406 231.918 82.8123 231.09 82.8125H225.928C225.099 82.8125 224.428 82.1407 224.428 81.3125V81.251C224.428 80.4227 225.099 79.751 225.928 79.751H231.09ZM228.028 73.6299C228.857 73.6299 229.528 74.3015 229.528 75.1299V75.1904C229.528 76.0188 228.857 76.6904 228.028 76.6904H223.887C223.058 76.6904 222.387 76.0188 222.387 75.1904V75.1299C222.387 74.3015 223.058 73.6299 223.887 73.6299H228.028ZM231.09 67.5078C231.918 67.508 232.59 68.1795 232.59 69.0078V69.0684C232.59 69.8967 231.918 70.5682 231.09 70.5684H225.928C225.099 70.5684 224.428 69.8968 224.428 69.0684V69.0078C224.428 68.1794 225.099 67.5078 225.928 67.5078H231.09Z" fill="#0B0F1B"/>
<path d="M270.34 64.3652C270.34 62.1561 272.131 60.3652 274.34 60.3652H319.395C321.604 60.3652 323.395 62.1561 323.395 64.3652V68.6086C323.395 70.8178 321.604 72.6086 319.395 72.6086H274.34C272.131 72.6086 270.34 70.8178 270.34 68.6086V64.3652Z" fill="#434B63"/>
<path d="M270.34 82.7305C270.34 80.5213 272.131 78.7305 274.34 78.7305H301.03C303.239 78.7305 305.03 80.5213 305.03 82.7305V86.9739C305.03 89.183 303.239 90.9739 301.03 90.9739H274.34C272.131 90.9739 270.34 89.183 270.34 86.9739V82.7305Z" fill="#303747"/>
<path opacity="0.2" d="M419.221 72.6085C419.221 89.5132 405.517 103.217 388.612 103.217C371.708 103.217 358.004 89.5132 358.004 72.6085C358.004 55.7039 371.708 42 388.612 42C405.517 42 419.221 55.7039 419.221 72.6085Z" fill="#434B63"/>
<path d="M413.099 72.6079C413.099 86.1316 402.136 97.0947 388.612 97.0947C375.088 97.0947 364.125 86.1316 364.125 72.6079C364.125 59.0842 375.088 48.1211 388.612 48.1211C402.136 48.1211 413.099 59.0842 413.099 72.6079Z" fill="#434B63"/>
<path opacity="0.3" d="M397.527 65.827C397.891 65.3977 398.535 65.3455 398.965 65.7104C399.394 66.0753 399.446 66.7192 399.081 67.1486L390.409 77.3514C390.038 77.7875 389.381 77.8334 388.954 77.4532L384.362 73.3721C383.941 72.9977 383.903 72.3528 384.278 71.9317C384.652 71.5105 385.297 71.4726 385.718 71.8469L389.53 75.235L397.527 65.827Z" fill="#0B0F1B"/>
<path d="M392.425 66.8465C392.79 66.4172 393.434 66.365 393.863 66.7299C394.292 67.0949 394.345 67.7388 393.98 68.1681L385.307 78.371C384.937 78.807 384.28 78.853 383.852 78.4727L379.261 74.3916C378.84 74.0172 378.802 73.3723 379.176 72.9512C379.55 72.53 380.195 72.4921 380.616 72.8665L384.428 76.2546L392.425 66.8465Z" fill="#0B0F1B"/>
<path d="M425.34 64.3652C425.34 62.1561 427.131 60.3652 429.34 60.3652H474.395C476.604 60.3652 478.395 62.1561 478.395 64.3652V68.6086C478.395 70.8178 476.604 72.6086 474.395 72.6086H429.34C427.131 72.6086 425.34 70.8178 425.34 68.6086V64.3652Z" fill="#434B63"/>
<path d="M425.34 82.7305C425.34 80.5213 427.131 78.7305 429.34 78.7305H456.03C458.239 78.7305 460.03 80.5213 460.03 82.7305V86.9739C460.03 89.183 458.239 90.9739 456.03 90.9739H429.34C427.131 90.9739 425.34 89.183 425.34 86.9739V82.7305Z" fill="#303747"/>
<path d="M117.383 61.3242C117.383 59.1151 119.174 57.3242 121.383 57.3242H166.438C168.647 57.3242 170.438 59.1151 170.438 61.3242V65.5676C170.438 67.7768 168.647 69.5676 166.438 69.5676H121.383C119.174 69.5676 117.383 67.7768 117.383 65.5676V61.3242Z" fill="#434B63"/>
<path opacity="0.2" d="M109.217 73.6495C109.217 90.5542 95.5132 104.258 78.6085 104.258C61.7039 104.258 48 90.5542 48 73.6495C48 56.7449 61.7039 43.041 78.6085 43.041C95.5132 43.041 109.217 56.7449 109.217 73.6495Z" fill="#434B63"/>
<path d="M103.095 73.6489C103.095 87.1726 92.1316 98.1358 78.6079 98.1358C65.0842 98.1358 54.1211 87.1726 54.1211 73.6489C54.1211 60.1252 65.0842 49.1621 78.6079 49.1621C92.1316 49.1621 103.095 60.1252 103.095 73.6489Z" fill="#434B63"/>
<path opacity="0.3" d="M74.5303 65.4883C75.0938 65.4883 75.5508 65.9453 75.5508 66.5088V78.752H84.7334C85.2968 78.7521 85.7539 79.209 85.7539 79.7725C85.7538 80.3358 85.2967 80.7929 84.7334 80.793H75.5508C75.0226 80.793 74.5876 80.3913 74.5352 79.877L74.5303 79.7725L74.4258 79.7666C73.9114 79.7142 73.5098 79.2801 73.5098 78.752V67.5293H71.4697C70.9063 67.5293 70.4493 67.0722 70.4492 66.5088C70.4492 65.9453 70.9062 65.4883 71.4697 65.4883H74.5303Z" fill="#0B0F1B"/>
<rect x="77.5898" y="68.5488" width="8.16228" height="8.16228" rx="1.5" fill="#0B0F1B"/>
<path fill-rule="evenodd" clip-rule="evenodd" d="M74.5296 82.8326C76.2201 82.8326 77.5905 81.4623 77.5905 79.7718C77.5905 78.0813 76.2201 76.7109 74.5296 76.7109C72.8391 76.7109 71.4688 78.0813 71.4688 79.7718C71.4688 81.4623 72.8391 82.8326 74.5296 82.8326Z" fill="#0B0F1B"/>
<path d="M115.34 61.3242C115.34 59.1151 117.131 57.3242 119.34 57.3242H164.395C166.604 57.3242 168.395 59.1151 168.395 61.3242V65.5676C168.395 67.7768 166.604 69.5676 164.395 69.5676H119.34C117.131 69.5676 115.34 67.7768 115.34 65.5676V61.3242Z" fill="#434B63"/>
<path d="M115.34 79.6895C115.34 77.4803 117.131 75.6895 119.34 75.6895H146.03C148.239 75.6895 150.03 77.4803 150.03 79.6895V83.9329C150.03 86.142 148.239 87.9329 146.03 87.9329H119.34C117.131 87.9329 115.34 86.142 115.34 83.9329V79.6895Z" fill="#303747"/>
<path d="M53.957 125C53.957 122.791 55.7479 121 57.957 121H327.474C329.684 121 331.474 122.791 331.474 125V129.243C331.474 131.453 329.684 133.243 327.474 133.243H57.957C55.7479 133.243 53.957 131.453 53.957 129.243V125Z" fill="#434B63"/>
<path fill-rule="evenodd" clip-rule="evenodd" d="M354.954 149.469C361.15 147.808 367.492 150.689 370.451 156.068C370.489 156.056 370.527 156.042 370.566 156.031C371.585 155.758 372.634 156.364 372.907 157.384C373.157 158.317 372.671 159.271 371.806 159.637C373.428 166.758 369.139 173.945 362.024 175.851C355.827 177.511 349.484 174.631 346.526 169.251C346.486 169.264 346.447 169.28 346.406 169.291C345.387 169.563 344.339 168.958 344.066 167.938C343.815 167.003 344.303 166.045 345.172 165.681C343.552 158.561 347.84 151.375 354.954 149.469ZM363.352 168.144C362.883 166.396 361.086 165.359 359.338 165.827L350.383 168.226C352.675 171.565 356.9 173.266 361.034 172.158C361.09 172.143 361.146 172.124 361.201 172.108C362.848 171.573 363.805 169.836 363.352 168.144ZM386.208 154.402C387.123 154.402 388.008 154.533 388.861 154.794C389.715 155.055 390.485 155.492 391.171 156.106L388.724 158.801C388.434 158.432 388.037 158.164 387.534 157.995C387.047 157.811 386.582 157.719 386.14 157.719C385.881 157.719 385.613 157.749 385.339 157.81C385.065 157.872 384.806 157.972 384.562 158.11C384.318 158.233 384.119 158.402 383.967 158.617C383.815 158.832 383.738 159.093 383.738 159.399C383.738 159.89 383.921 160.267 384.287 160.528C384.653 160.789 385.11 161.012 385.659 161.196C386.223 161.38 386.826 161.565 387.466 161.749C388.106 161.933 388.701 162.194 389.25 162.532C389.814 162.87 390.279 163.323 390.645 163.89C391.01 164.458 391.193 165.218 391.193 166.17C391.193 167.075 391.026 167.866 390.691 168.542C390.355 169.217 389.898 169.778 389.318 170.223C388.754 170.669 388.091 170.999 387.329 171.214C386.582 171.429 385.789 171.536 384.95 171.536C383.899 171.536 382.923 171.375 382.024 171.053C381.124 170.73 380.285 170.208 379.508 169.486L382.046 166.677C382.412 167.168 382.869 167.552 383.418 167.828C383.982 168.089 384.562 168.22 385.156 168.22C385.446 168.22 385.736 168.189 386.026 168.128C386.33 168.051 386.597 167.944 386.825 167.805C387.069 167.667 387.26 167.49 387.398 167.275C387.55 167.06 387.626 166.807 387.626 166.515C387.626 166.024 387.436 165.64 387.055 165.364C386.689 165.072 386.223 164.826 385.659 164.627C385.095 164.427 384.486 164.228 383.83 164.028C383.175 163.829 382.564 163.56 382 163.222C381.436 162.885 380.963 162.439 380.582 161.887C380.216 161.334 380.033 160.605 380.033 159.699C380.033 158.824 380.202 158.056 380.537 157.396C380.888 156.736 381.345 156.183 381.909 155.738C382.489 155.293 383.152 154.963 383.899 154.748C384.646 154.518 385.415 154.402 386.208 154.402ZM398.471 159.653C399.477 159.653 400.3 159.784 400.941 160.045C401.596 160.29 402.115 160.659 402.496 161.15C402.892 161.641 403.167 162.248 403.319 162.97C403.472 163.676 403.548 164.497 403.548 165.433V171.121H400.392V169.717H400.346C399.965 170.315 399.454 170.746 398.814 171.007C398.189 171.268 397.525 171.397 396.824 171.397C396.306 171.397 395.802 171.321 395.315 171.168C394.842 171.03 394.424 170.814 394.058 170.522C393.692 170.231 393.402 169.87 393.189 169.44C392.975 169.01 392.868 168.511 392.868 167.943C392.868 167.298 392.982 166.754 393.211 166.308C393.455 165.863 393.776 165.495 394.172 165.203C394.584 164.911 395.048 164.688 395.567 164.535C396.085 164.366 396.618 164.244 397.167 164.167C397.731 164.09 398.288 164.043 398.837 164.028C399.401 164.013 399.919 164.006 400.392 164.006C400.392 163.392 400.171 162.908 399.729 162.554C399.302 162.186 398.791 162.002 398.196 162.002C397.633 162.002 397.114 162.124 396.642 162.37C396.184 162.6 395.772 162.923 395.406 163.338L393.577 161.449C394.218 160.85 394.965 160.405 395.818 160.113C396.672 159.806 397.556 159.653 398.471 159.653ZM417.472 159.653C418.264 159.653 418.981 159.791 419.621 160.067C420.277 160.344 420.826 160.743 421.268 161.265C421.725 161.772 422.076 162.386 422.32 163.107C422.564 163.829 422.686 164.635 422.686 165.525V166.607H414.728C414.865 167.267 415.162 167.798 415.619 168.197C416.077 168.581 416.641 168.772 417.312 168.772C417.876 168.772 418.348 168.65 418.73 168.404C419.126 168.143 419.469 167.813 419.759 167.414L422.16 169.187C421.611 169.893 420.918 170.438 420.079 170.822C419.241 171.206 418.371 171.397 417.472 171.397C416.618 171.397 415.81 171.26 415.048 170.983C414.301 170.707 413.645 170.315 413.081 169.808C412.532 169.286 412.098 168.665 411.777 167.943C411.457 167.222 411.297 166.416 411.297 165.525C411.297 164.635 411.457 163.829 411.777 163.107C412.098 162.386 412.532 161.772 413.081 161.265C413.645 160.743 414.301 160.344 415.048 160.067C415.81 159.791 416.618 159.653 417.472 159.653ZM429.049 159.653C429.781 159.653 430.52 159.761 431.267 159.975C432.014 160.19 432.647 160.574 433.165 161.127L431.061 163.222C430.558 162.593 429.895 162.278 429.071 162.278C428.782 162.278 428.5 162.347 428.226 162.485C427.951 162.623 427.814 162.861 427.814 163.199C427.814 163.475 427.951 163.683 428.226 163.821C428.515 163.944 428.873 164.059 429.3 164.167C429.742 164.259 430.208 164.366 430.695 164.489C431.198 164.597 431.663 164.773 432.09 165.018C432.532 165.264 432.891 165.602 433.165 166.032C433.455 166.446 433.6 167.007 433.6 167.713C433.6 168.434 433.439 169.034 433.119 169.51C432.814 169.97 432.418 170.346 431.93 170.638C431.442 170.914 430.893 171.106 430.283 171.214C429.674 171.336 429.071 171.397 428.477 171.397C427.699 171.397 426.914 171.29 426.121 171.075C425.329 170.845 424.657 170.446 424.109 169.878L426.19 167.552C426.51 167.951 426.861 168.259 427.242 168.473C427.639 168.673 428.096 168.772 428.614 168.772C429.011 168.772 429.369 168.719 429.689 168.611C430.009 168.488 430.169 168.274 430.169 167.967C430.169 167.675 430.024 167.46 429.734 167.322C429.46 167.169 429.101 167.045 428.659 166.953C428.233 166.846 427.768 166.738 427.265 166.631C426.777 166.508 426.312 166.332 425.87 166.101C425.443 165.871 425.085 165.548 424.795 165.134C424.521 164.704 424.383 164.136 424.383 163.429C424.383 162.769 424.512 162.201 424.772 161.725C425.046 161.249 425.397 160.859 425.824 160.552C426.266 160.245 426.769 160.022 427.333 159.884C427.897 159.73 428.47 159.653 429.049 159.653ZM441.12 159.653C441.974 159.653 442.775 159.791 443.522 160.067C444.284 160.344 444.94 160.743 445.488 161.265C446.052 161.772 446.494 162.386 446.815 163.107C447.135 163.829 447.295 164.635 447.295 165.525C447.295 166.416 447.135 167.222 446.815 167.943C446.494 168.665 446.052 169.286 445.488 169.808C444.94 170.315 444.284 170.707 443.522 170.983C442.775 171.259 441.974 171.397 441.12 171.397C440.267 171.397 439.459 171.26 438.696 170.983C437.949 170.707 437.294 170.315 436.73 169.808C436.181 169.286 435.747 168.665 435.427 167.943C435.107 167.222 434.946 166.416 434.946 165.525C434.946 164.635 435.107 163.829 435.427 163.107C435.747 162.386 436.181 161.772 436.73 161.265C437.294 160.743 437.949 160.344 438.696 160.067C439.459 159.791 440.267 159.653 441.12 159.653ZM469.89 171.121H466.734V169.647H466.688C466.55 169.847 466.367 170.054 466.139 170.269C465.925 170.469 465.666 170.653 465.361 170.822C465.072 170.991 464.744 171.129 464.378 171.236C464.027 171.344 463.662 171.397 463.28 171.397C462.457 171.397 461.71 171.26 461.039 170.983C460.368 170.692 459.789 170.293 459.301 169.786C458.828 169.264 458.462 168.649 458.203 167.943C457.944 167.237 457.815 166.461 457.815 165.617C457.815 164.834 457.93 164.09 458.158 163.384C458.402 162.662 458.737 162.025 459.164 161.472C459.606 160.92 460.14 160.482 460.765 160.16C461.39 159.822 462.099 159.653 462.892 159.653C463.608 159.653 464.271 159.769 464.881 159.999C465.506 160.214 466.017 160.59 466.413 161.127H466.459V153.712H469.89V171.121ZM478.463 159.653C479.256 159.653 479.972 159.791 480.612 160.067C481.268 160.344 481.817 160.743 482.259 161.265C482.716 161.772 483.067 162.386 483.311 163.107C483.555 163.829 483.677 164.635 483.677 165.525V166.607H475.719C475.856 167.267 476.153 167.798 476.61 168.197C477.068 168.581 477.632 168.772 478.303 168.772C478.867 168.772 479.34 168.65 479.721 168.404C480.117 168.143 480.46 167.813 480.749 167.414L483.151 169.187C482.602 169.893 481.908 170.438 481.069 170.822C480.231 171.206 479.362 171.397 478.463 171.397C477.609 171.397 476.8 171.26 476.038 170.983C475.291 170.707 474.635 170.315 474.071 169.808C473.523 169.286 473.089 168.665 472.769 167.943C472.449 167.222 472.288 166.416 472.288 165.525C472.288 164.635 472.449 163.829 472.769 163.107C473.089 162.386 473.523 161.772 474.071 161.265C474.635 160.743 475.291 160.344 476.038 160.067C476.8 159.791 477.609 159.653 478.463 159.653ZM409.176 171.121H405.745V153.712H409.176V171.121ZM455.993 159.653C456.191 159.653 456.39 159.66 456.588 159.676C456.786 159.691 456.969 159.722 457.137 159.768V162.923C456.893 162.846 456.649 162.792 456.405 162.762C456.177 162.715 455.932 162.693 455.673 162.693C455.018 162.693 454.499 162.785 454.118 162.97C453.737 163.154 453.44 163.414 453.227 163.752C453.029 164.074 452.899 164.466 452.838 164.927C452.777 165.387 452.746 165.894 452.746 166.446V171.121H449.316V159.929H452.746V161.725H452.792C453.158 161.035 453.592 160.52 454.095 160.182C454.598 159.829 455.231 159.653 455.993 159.653ZM492.441 159.653C492.639 159.653 492.837 159.66 493.035 159.676C493.233 159.691 493.416 159.722 493.584 159.768V162.923C493.34 162.846 493.096 162.792 492.852 162.762C492.623 162.716 492.379 162.693 492.12 162.693C491.465 162.693 490.947 162.785 490.566 162.97C490.184 163.154 489.886 163.414 489.673 163.752C489.475 164.074 489.345 164.466 489.284 164.927C489.223 165.387 489.193 165.894 489.193 166.446V171.121H485.763V159.929H489.193V161.725H489.238C489.604 161.035 490.039 160.52 490.542 160.182C491.045 159.829 491.678 159.653 492.441 159.653ZM399.546 166.217C399.287 166.217 398.959 166.232 398.563 166.263C398.181 166.278 397.807 166.339 397.442 166.446C397.091 166.554 396.787 166.716 396.527 166.93C396.284 167.145 396.161 167.444 396.161 167.828C396.161 168.242 396.337 168.55 396.688 168.75C397.038 168.949 397.404 169.049 397.785 169.049C398.12 169.049 398.441 169.003 398.745 168.911C399.065 168.819 399.348 168.688 399.592 168.519C399.836 168.35 400.026 168.135 400.163 167.874C400.316 167.613 400.392 167.306 400.392 166.953V166.217H399.546ZM441.12 162.693C440.251 162.693 439.573 162.954 439.085 163.475C438.612 163.997 438.376 164.681 438.376 165.525C438.376 166.37 438.613 167.053 439.085 167.575C439.573 168.097 440.251 168.358 441.12 168.358C441.989 168.358 442.66 168.097 443.133 167.575C443.621 167.053 443.865 166.37 443.865 165.525C443.865 164.681 443.621 163.997 443.133 163.475C442.66 162.954 441.989 162.693 441.12 162.693ZM463.989 162.693C463.121 162.693 462.442 162.954 461.954 163.475C461.482 163.997 461.245 164.681 461.245 165.525C461.245 166.37 461.482 167.053 461.954 167.575C462.442 168.097 463.12 168.358 463.989 168.358C464.858 168.358 465.529 168.097 466.002 167.575C466.49 167.053 466.734 166.37 466.734 165.525C466.733 164.681 466.49 163.997 466.002 163.475C465.529 162.953 464.858 162.693 463.989 162.693ZM362.283 162.209C364.535 162.907 366.39 164.709 367.045 167.154C367.066 167.234 367.084 167.315 367.103 167.395C368.2 165.399 368.613 163.023 368.113 160.646L362.283 162.209ZM349.874 157.926C348.777 159.922 348.367 162.298 348.866 164.675L354.695 163.112C352.444 162.414 350.588 160.612 349.933 158.167C349.911 158.087 349.893 158.006 349.874 157.926ZM417.151 162.14C416.771 162.14 416.435 162.201 416.146 162.324C415.856 162.447 415.604 162.609 415.391 162.808C415.193 162.993 415.032 163.215 414.91 163.475C414.804 163.721 414.743 163.982 414.728 164.259H419.256C419.271 163.675 419.08 163.176 418.684 162.762C418.287 162.347 417.776 162.14 417.151 162.14ZM478.143 162.14C477.762 162.14 477.426 162.201 477.136 162.324C476.846 162.447 476.595 162.609 476.382 162.808C476.184 162.993 476.023 163.215 475.901 163.475C475.795 163.721 475.734 163.982 475.719 164.259H480.246C480.261 163.675 480.071 163.176 479.675 162.762C479.279 162.347 478.768 162.14 478.143 162.14ZM366.595 157.094C364.393 153.888 360.411 152.193 356.437 153.045L355.944 153.163C354.196 153.631 353.158 155.429 353.626 157.178C354.095 158.925 355.891 159.962 357.639 159.495V159.494L366.595 157.094Z" fill="#E8ECF4"/>
</svg>
