<svg width="124" height="24" viewBox="0 0 124 24" fill="none" xmlns="http://www.w3.org/2000/svg">
<path d="M114.862 20.3696C113.545 20.3696 112.324 20.0348 111.201 19.3651C110.078 18.6955 109.17 17.7234 108.479 16.4489C107.809 15.1745 107.475 13.6408 107.475 11.8478C107.475 10.0333 107.809 8.47801 108.479 7.18193C109.17 5.88584 110.099 4.89218 111.266 4.20093C112.432 3.50969 113.728 3.16406 115.154 3.16406C116.04 3.16406 116.936 3.38008 117.843 3.81211C118.772 4.22253 119.55 4.77337 120.176 5.46461V3.55289H124V19.8836H120.176V17.1294C119.679 18.015 118.967 18.7819 118.038 19.4299C117.13 20.0564 116.072 20.3696 114.862 20.3696ZM115.77 16.5461C116.547 16.5461 117.271 16.3409 117.94 15.9305C118.61 15.5201 119.15 14.9476 119.561 14.2132C119.971 13.4571 120.176 12.5715 120.176 11.5562L120.144 9.06125C119.561 8.39161 118.913 7.86237 118.2 7.47355C117.508 7.08472 116.742 6.89031 115.899 6.89031C114.992 6.89031 114.203 7.12792 113.534 7.60315C112.864 8.07839 112.346 8.69403 111.979 9.45008C111.633 10.1845 111.46 10.9838 111.46 11.8478C111.46 12.7119 111.633 13.5003 111.979 14.2132C112.346 14.926 112.853 15.4985 113.501 15.9305C114.149 16.3409 114.905 16.5461 115.77 16.5461Z" fill="white"/>
<path d="M96.6914 19.8852V3.55449H100.515V19.8852H96.6914ZM100.515 10.6182V6.66509C101.098 5.67143 101.779 4.85058 102.556 4.20253C103.355 3.55449 104.241 3.23047 105.213 3.23047C105.818 3.23047 106.347 3.33848 106.801 3.55449V7.86397C106.477 7.66956 106.142 7.51835 105.796 7.41034C105.451 7.30234 105.073 7.24833 104.662 7.24833C103.69 7.24833 102.88 7.57235 102.232 8.2204C101.606 8.86844 101.033 9.66769 100.515 10.6182Z" fill="white"/>
<path d="M86.3529 20.3696C85.1432 20.3696 84.0091 20.1536 82.9507 19.7216C81.9138 19.2679 80.9957 18.6523 80.1965 17.8746C79.3972 17.097 78.7708 16.1897 78.3172 15.1529C77.8635 14.0944 77.6367 12.9711 77.6367 11.783C77.6367 10.5733 77.8635 9.45008 78.3172 8.41321C78.7708 7.37634 79.3972 6.46908 80.1965 5.69143C80.9957 4.89218 81.9138 4.27654 82.9507 3.84451C84.0091 3.39088 85.1432 3.16406 86.3529 3.16406C87.541 3.16406 88.6534 3.39088 89.6903 3.84451C90.7488 4.27654 91.6776 4.89218 92.4769 5.69143C93.2977 6.46908 93.9242 7.37634 94.3562 8.41321C94.8098 9.45008 95.0367 10.5733 95.0367 11.783C95.0367 12.9711 94.8098 14.0944 94.3562 15.1529C93.9242 16.1897 93.2977 17.097 92.4769 17.8746C91.6776 18.6523 90.7488 19.2679 89.6903 19.7216C88.6534 20.1536 87.541 20.3696 86.3529 20.3696ZM86.3529 16.6758C87.2169 16.6758 87.9946 16.4813 88.6858 16.0925C89.3987 15.6821 89.9603 15.1096 90.3708 14.3752C90.7812 13.6408 90.9864 12.7767 90.9864 11.783C90.9864 10.7678 90.7812 9.89291 90.3708 9.15846C89.9603 8.42401 89.3987 7.86237 88.6858 7.47355C87.9946 7.06312 87.2169 6.85791 86.3529 6.85791C85.5104 6.85791 84.7328 7.06312 84.0199 7.47355C83.3071 7.86237 82.7347 8.42401 82.3026 9.15846C81.8922 9.89291 81.687 10.7678 81.687 11.783C81.687 12.7767 81.8922 13.6408 82.3026 14.3752C82.7347 15.1096 83.3071 15.6821 84.0199 16.0925C84.7328 16.4813 85.5104 16.6758 86.3529 16.6758Z" fill="white"/>
<path d="M68.7352 19.8834L61.1855 3.55273H65.657L69.9341 14.051L74.438 3.55273H78.9095L71.1654 19.8834H68.7352Z" fill="white"/>
<path d="M51.1924 20.3696C49.8747 20.3696 48.6542 20.0348 47.5309 19.3651C46.4077 18.6955 45.5004 17.7234 44.8092 16.4489C44.1395 15.1745 43.8047 13.6408 43.8047 11.8478C43.8047 10.0333 44.1395 8.47801 44.8092 7.18193C45.5004 5.88584 46.4293 4.89218 47.5957 4.20093C48.7622 3.50969 50.0583 3.16406 51.484 3.16406C52.3696 3.16406 53.2661 3.38008 54.1734 3.81211C55.1022 4.22253 55.8799 4.77337 56.5063 5.46461V3.55289H60.3298V19.8836H56.5063V17.1294C56.0095 18.015 55.2966 18.7819 54.3678 19.4299C53.4605 20.0564 52.4021 20.3696 51.1924 20.3696ZM52.0996 16.5461C52.8773 16.5461 53.6009 16.3409 54.2706 15.9305C54.9402 15.5201 55.4803 14.9476 55.8907 14.2132C56.3011 13.4571 56.5063 12.5715 56.5063 11.5562L56.4739 9.06125C55.8907 8.39161 55.2426 7.86237 54.5298 7.47355C53.8385 7.08472 53.0717 6.89031 52.2292 6.89031C51.322 6.89031 50.5335 7.12792 49.8639 7.60315C49.1942 8.07839 48.6758 8.69403 48.3086 9.45008C47.963 10.1845 47.7901 10.9838 47.7901 11.8478C47.7901 12.7119 47.963 13.5003 48.3086 14.2132C48.6758 14.926 49.1834 15.4985 49.8315 15.9305C50.4795 16.3409 51.2356 16.5461 52.0996 16.5461Z" fill="white"/>
<path d="M23.3084 11.6542C23.3084 18.0906 18.0906 23.3084 11.6542 23.3084C5.21776 23.3084 0 18.0906 0 11.6542C0 5.21776 5.21776 0 11.6542 0C18.0906 0 23.3084 5.21776 23.3084 11.6542Z" fill="white"/>
<path d="M25.1719 0C31.6083 0 36.8261 5.21776 36.8261 11.6542C36.8261 18.0906 31.6083 23.3084 25.1719 23.3084V0Z" fill="white"/>
</svg>
