<svg width="86" height="86" viewBox="0 0 86 86" fill="none" xmlns="http://www.w3.org/2000/svg">
<path d="M43 0C66.7482 0 86 19.2518 86 43C86 66.7482 66.7482 86 43 86C19.2518 86 0 66.7482 0 43C3.54343e-07 19.2518 19.2518 3.54389e-07 43 0ZM48.3535 62.5771C47.9726 62.5772 47.6434 62.6479 47.3662 62.7891C47.0959 62.9242 46.8878 63.112 46.7422 63.3516V62.6416H44.4326V70.3311H46.7422V67.1318C46.8878 67.3714 47.0959 67.5618 47.3662 67.7031C47.6434 67.8382 47.9725 67.9062 48.3535 67.9062C48.811 67.9062 49.2244 67.8017 49.5918 67.5928C49.9591 67.3777 50.2471 67.0702 50.4551 66.6709C50.6699 66.2653 50.7773 65.7882 50.7773 65.2412C50.7773 64.6943 50.67 64.2207 50.4551 63.8213C50.2471 63.4158 49.9591 63.1084 49.5918 62.8994C49.2244 62.6843 48.811 62.5772 48.3535 62.5771ZM16.9414 61.167V68.2158H19.0273V65.6875H19.0371L20.2871 68.2158H22.5801L21.1328 65.5176C21.5963 65.3583 21.951 65.0964 22.1953 64.7314C22.4458 64.3664 22.5713 63.9477 22.5713 63.4766C22.5712 63.0387 22.4735 62.6468 22.2793 62.3018C22.0914 61.9503 21.8067 61.6746 21.4248 61.4756C21.0427 61.2699 20.5816 61.1671 20.043 61.167H16.9414ZM25.4395 62.5771C25.033 62.5772 24.6663 62.6907 24.3398 62.918C24.0133 63.139 23.7535 63.4645 23.5625 63.8936C23.3776 64.3163 23.2852 64.8177 23.2852 65.3965C23.2852 65.9754 23.3776 66.4799 23.5625 66.9092C23.7535 67.3319 24.0132 67.6572 24.3398 67.8848C24.6663 68.1056 25.0329 68.2158 25.4395 68.2158C25.7781 68.2158 26.071 68.1448 26.3174 68.002C26.5638 67.8524 26.7525 67.6501 26.8818 67.3965V68.1475H28.9248V62.6455H26.8818V63.3965C26.7524 63.1429 26.5638 62.9439 26.3174 62.8008C26.071 62.6514 25.7781 62.5772 25.4395 62.5771ZM30.2686 61.167V62.5361H29.6299V64.3994H30.2686V65.8896C30.2686 67.4403 30.9748 68.2156 32.3867 68.2158H33.1543V66.3125H32.6699C32.5363 66.3124 32.4388 66.2829 32.3779 66.2227C32.3231 66.1622 32.2959 66.064 32.2959 65.9297V64.3994H33.1357V62.5361H32.2959V61.167H30.2686ZM34.498 61.167V62.5361H33.8594V64.3994H34.498V65.8896C34.498 67.4405 35.2049 68.2158 36.6172 68.2158H37.3838V66.3125H36.8994C36.7658 66.3124 36.6682 66.2829 36.6074 66.2227C36.5526 66.1622 36.5254 66.064 36.5254 65.9297V64.3994H37.3652V62.5361H36.5254V61.167H34.498ZM40.2432 62.5771C39.8366 62.5771 39.4691 62.6905 39.1426 62.918C38.8161 63.139 38.5572 63.4646 38.3662 63.8936C38.1813 64.3163 38.0889 64.8177 38.0889 65.3965C38.0889 65.9754 38.1813 66.4799 38.3662 66.9092C38.5573 67.3318 38.816 67.6572 39.1426 67.8848C39.4692 68.1058 39.8365 68.2158 40.2432 68.2158C40.5818 68.2157 40.8748 68.1449 41.1211 68.002C41.3675 67.8524 41.5552 67.65 41.6846 67.3965V68.1475H43.7275V62.6455H41.6846V63.3965C41.5552 63.1429 41.3675 62.9439 41.1211 62.8008C40.8748 62.6513 40.5818 62.5773 40.2432 62.5771ZM53.5967 62.5771C53.0608 62.5772 52.5782 62.6906 52.1494 62.918C51.7207 63.1455 51.3827 63.4743 51.1367 63.9033C50.897 64.3261 50.7774 64.8242 50.7773 65.3965C50.7773 65.9689 50.897 66.4701 51.1367 66.8994C51.3827 67.3221 51.7206 67.6474 52.1494 67.875C52.5782 68.1025 53.0608 68.2158 53.5967 68.2158C54.1327 68.2158 54.6161 68.1026 55.0449 67.875C55.4736 67.6474 55.8082 67.322 56.0479 66.8994C56.2938 66.4702 56.416 65.9688 56.416 65.3965C56.416 64.8242 56.2938 64.3261 56.0479 63.9033C55.8082 63.4742 55.4736 63.1456 55.0449 62.918C54.6161 62.6904 54.1327 62.5772 53.5967 62.5771ZM59.9414 62.5771C59.4053 62.5771 58.922 62.6904 58.4932 62.918C58.0645 63.1455 57.7274 63.4744 57.4814 63.9033C57.2418 64.3261 57.1211 64.8242 57.1211 65.3965C57.1211 65.9689 57.2417 66.4701 57.4814 66.8994C57.7274 67.3219 58.0644 67.6474 58.4932 67.875C58.9221 68.1026 59.4053 68.2158 59.9414 68.2158C60.4773 68.2157 60.9599 68.1025 61.3887 67.875C61.8173 67.6474 62.152 67.3219 62.3916 66.8994C62.6375 66.4702 62.7607 65.9688 62.7607 65.3965C62.7607 64.8242 62.6376 64.3261 62.3916 63.9033C62.1519 63.4743 61.8174 63.1455 61.3887 62.918C60.9599 62.6905 60.4773 62.5772 59.9414 62.5771ZM67.0527 60.4619V63.0879C66.9234 62.8183 66.7355 62.6073 66.4893 62.4551C66.249 62.296 65.9588 62.2159 65.6201 62.2158C65.2135 62.2158 64.8461 62.3371 64.5195 62.5791C64.193 62.8143 63.9342 63.1607 63.7432 63.6172C63.5583 64.0669 63.4659 64.6001 63.4658 65.2158C63.4658 65.8317 63.5583 66.3685 63.7432 66.8252C63.9342 67.2749 64.1929 67.6211 64.5195 67.8633C64.8462 68.0985 65.2134 68.2158 65.6201 68.2158C65.9588 68.2157 66.249 68.1395 66.4893 67.9873C66.7354 67.8282 66.9234 67.6134 67.0527 67.3438V68.1436H69.1055V60.4619H67.0527ZM53.5967 64.4502C53.7921 64.4503 53.9565 64.5318 54.0889 64.6943C54.2212 64.8504 54.2871 65.0845 54.2871 65.3965C54.2871 65.7084 54.2211 65.9458 54.0889 66.1084C53.9565 66.2644 53.7921 66.3427 53.5967 66.3428C53.3949 66.3427 53.2281 66.2644 53.0957 66.1084C52.9696 65.9458 52.9062 65.7087 52.9062 65.3965C52.9063 65.0846 52.9722 64.8504 53.1045 64.6943C53.2369 64.5319 53.4013 64.4502 53.5967 64.4502ZM59.9414 64.4502C60.1367 64.4504 60.3013 64.5319 60.4336 64.6943C60.5658 64.8504 60.6318 65.0847 60.6318 65.3965C60.6318 65.7083 60.5657 65.9458 60.4336 66.1084C60.3013 66.2644 60.1367 66.3426 59.9414 66.3428C59.7396 66.3428 59.5719 66.2645 59.4395 66.1084C59.3134 65.9458 59.25 65.7085 59.25 65.3965C59.25 65.0844 59.3168 64.8504 59.4492 64.6943C59.5817 64.5319 59.746 64.4502 59.9414 64.4502ZM26.124 64.4697C26.3456 64.4699 26.5273 64.5514 26.6689 64.7139C26.8106 64.8764 26.8818 65.104 26.8818 65.3965C26.8818 65.6889 26.8105 65.9165 26.6689 66.0791C26.5273 66.2415 26.3456 66.3231 26.124 66.3232C25.9022 66.3232 25.7199 66.2417 25.5781 66.0791C25.4365 65.9165 25.3652 65.689 25.3652 65.3965C25.3653 65.104 25.4365 64.8764 25.5781 64.7139C25.7198 64.5514 25.9023 64.4697 26.124 64.4697ZM40.9268 64.4697C41.1485 64.4698 41.331 64.5513 41.4727 64.7139C41.6141 64.8764 41.6845 65.1041 41.6846 65.3965C41.6846 65.6888 41.614 65.9165 41.4727 66.0791C41.331 66.2416 41.1485 66.3232 40.9268 66.3232C40.7049 66.3232 40.5236 66.2417 40.3818 66.0791C40.2401 65.9165 40.1689 65.6892 40.1689 65.3965C40.169 65.1039 40.2401 64.8764 40.3818 64.7139C40.5235 64.5515 40.705 64.4697 40.9268 64.4697ZM66.3037 64.2305C66.5254 64.2305 66.7079 64.3164 66.8496 64.4893C66.9913 64.6622 67.0614 64.9047 67.0615 65.2158C67.0615 65.5269 66.991 65.7694 66.8496 65.9424C66.7079 66.1153 66.5255 66.2021 66.3037 66.2021C66.082 66.2021 65.9005 66.1153 65.7588 65.9424C65.6171 65.7694 65.5459 65.5272 65.5459 65.2158C65.546 64.9046 65.6171 64.6622 65.7588 64.4893C65.9004 64.3167 66.0822 64.2305 66.3037 64.2305ZM47.584 64.3652C47.8335 64.3653 48.0388 64.4421 48.1982 64.5957C48.3576 64.7493 48.4374 64.9648 48.4375 65.2412C48.4375 65.5175 48.3574 65.7331 48.1982 65.8867C48.0388 66.0403 47.8335 66.1171 47.584 66.1172C47.3345 66.1171 47.1301 66.0403 46.9707 65.8867C46.8113 65.7331 46.7314 65.5178 46.7314 65.2412C46.7315 64.9648 46.8113 64.7493 46.9707 64.5957C47.1301 64.4424 47.3347 64.3653 47.584 64.3652ZM19.8545 63.0186C20.0486 63.0186 20.1967 63.0716 20.2969 63.1777C20.4033 63.2839 20.456 63.4305 20.4561 63.6162C20.4561 63.8218 20.4058 63.9746 20.3057 64.0742C20.2055 64.167 20.0548 64.2138 19.8545 64.2139H19.0273V63.0186H19.8545ZM47.2139 52.0039C46.875 52.0039 46.5814 52.0812 46.335 52.2354C46.0948 52.3828 45.9096 52.5873 45.7803 52.8486V52.0742H43.7285V60.4629H45.7803V56.9727C45.9096 57.234 46.0948 57.4415 46.335 57.5957C46.5815 57.7432 46.875 57.8174 47.2139 57.8174C47.6203 57.8172 47.9871 57.7034 48.3135 57.4756C48.64 57.2409 48.8962 56.9054 49.0811 56.4697C49.272 56.0272 49.3672 55.5068 49.3672 54.9102C49.3671 54.3136 49.2721 53.797 49.0811 53.3613C48.8962 52.9189 48.64 52.5834 48.3135 52.3555C47.9871 52.121 47.6203 52.004 47.2139 52.0039ZM23.2852 50.5938V57.6426H25.3213V54.5859L27.21 57.6426H29.6299L27.2461 53.9688L29.4834 50.5938H27.1816L25.3213 53.5605V50.5938H23.2852ZM32.0527 52.0039C31.5955 52.004 31.1827 52.1173 30.8154 52.3447C30.448 52.5658 30.1573 52.8921 29.9424 53.3213C29.7345 53.744 29.6299 54.2446 29.6299 54.8232C29.6299 55.4021 29.7344 55.9067 29.9424 56.3359C30.1573 56.7585 30.4481 57.0839 30.8154 57.3115C31.1828 57.5325 31.5954 57.6425 32.0527 57.6426C32.4338 57.6425 32.7638 57.5717 33.041 57.4287C33.3182 57.2791 33.5302 57.0768 33.6758 56.8232V57.5752H35.9746V52.0723H33.6758V52.8232C33.5302 52.5696 33.3183 52.3716 33.041 52.2285C32.7637 52.079 32.434 52.0039 32.0527 52.0039ZM36.6787 52.0039V55.25C36.6787 55.9847 36.8477 56.5678 37.1855 56.998C37.5296 57.4282 38.0056 57.6426 38.6123 57.6426C38.9873 57.6425 39.3093 57.5599 39.5781 57.3945C39.8532 57.2291 40.0728 57.0137 40.2354 56.749V57.6035H42.3184V52.0039H40.2354V54.9727C40.2353 55.2371 40.1692 55.4487 40.0381 55.6074C39.9068 55.7596 39.7254 55.8358 39.4941 55.8359C39.269 55.8359 39.0878 55.7596 38.9502 55.6074C38.8189 55.4486 38.753 55.2373 38.7529 54.9727V52.0039H36.6787ZM50.0723 50.5938V57.6426H52.1875V50.5938H50.0723ZM52.8926 52.0039V55.25C52.8926 55.9847 53.0606 56.5678 53.3984 56.998C53.7425 57.4282 54.2184 57.6426 54.8252 57.6426C55.2004 57.6425 55.5231 57.5599 55.792 57.3945C56.0669 57.2291 56.2857 57.0135 56.4482 56.749V57.6035H58.5312V52.0039H56.4482V54.9727C56.4482 55.2371 56.3822 55.4487 56.251 55.6074C56.1197 55.7596 55.9383 55.8359 55.707 55.8359C55.4819 55.8359 55.3007 55.7596 55.1631 55.6074C55.0318 55.4486 54.9659 55.2372 54.9658 54.9727V52.0039H52.8926ZM61.7461 52.0039C61.2602 52.0039 60.8467 52.0856 60.5059 52.248C60.165 52.4041 59.9053 52.6218 59.7285 52.9014C59.5582 53.1744 59.4737 53.4803 59.4736 53.8184C59.4736 54.2086 59.565 54.5142 59.748 54.7354C59.9375 54.9565 60.1551 55.113 60.4014 55.2041C60.6539 55.2951 60.9734 55.38 61.3584 55.458C61.6735 55.5229 61.8977 55.5808 62.0303 55.6328C62.1626 55.6848 62.2294 55.7731 62.2295 55.8965C62.2295 55.9679 62.1977 56.0301 62.1348 56.082C62.0717 56.1275 61.9861 56.1503 61.8789 56.1504C61.7086 56.1504 61.5667 56.1111 61.4531 56.0332C61.3458 55.9552 61.2792 55.8345 61.2539 55.6719H59.2363C59.2679 56.0491 59.3978 56.3874 59.625 56.6865C59.8523 56.9857 60.1588 57.2205 60.5439 57.3896C60.9353 57.5586 61.3838 57.6426 61.8887 57.6426C62.3492 57.6425 62.7501 57.5684 63.0908 57.4189C63.4379 57.2694 63.7037 57.0638 63.8867 56.8037C64.0696 56.5436 64.1611 56.2508 64.1611 55.9258C64.1611 55.5097 64.0637 55.1843 63.8682 54.9502C63.6726 54.7097 63.4417 54.541 63.1768 54.4434C62.9117 54.3458 62.5861 54.2577 62.2012 54.1797C61.9109 54.1212 61.699 54.0657 61.5664 54.0137C61.4338 53.9551 61.3672 53.8703 61.3672 53.7598C61.3673 53.6754 61.3964 53.6132 61.4531 53.5742C61.5099 53.529 61.5923 53.5059 61.6992 53.5059C61.8694 53.506 62.0055 53.5483 62.1064 53.6328C62.2074 53.7108 62.2731 53.8251 62.3047 53.9746H64.1709C64.0888 53.3894 63.8429 52.914 63.4326 52.5498C63.0286 52.1856 62.4658 52.004 61.7461 52.0039ZM46.5293 53.9551C46.751 53.9552 46.9335 54.0385 47.0752 54.2061C47.2168 54.3736 47.287 54.6087 47.2871 54.9102C47.2871 55.2115 47.2166 55.4467 47.0752 55.6143C46.9335 55.7818 46.751 55.8661 46.5293 55.8662C46.3075 55.8662 46.1251 55.7819 45.9834 55.6143C45.8419 55.4467 45.7715 55.2116 45.7715 54.9102C45.7716 54.6087 45.8417 54.3736 45.9834 54.2061C46.1251 54.0386 46.3075 53.9551 46.5293 53.9551ZM32.8232 53.8965C33.0725 53.8966 33.2772 53.9782 33.4365 54.1406C33.5958 54.3032 33.6757 54.5308 33.6758 54.8232C33.6758 55.1158 33.5958 55.3442 33.4365 55.5068C33.2772 55.6692 33.0724 55.7499 32.8232 55.75C32.5737 55.75 32.3684 55.6693 32.209 55.5068C32.0495 55.3442 31.9697 55.1159 31.9697 54.8232C31.9698 54.5308 32.0497 54.3032 32.209 54.1406C32.3684 53.9782 32.5737 53.8965 32.8232 53.8965ZM36.7451 19.3984C36.4842 18.728 35.7291 18.3957 35.0586 18.6562C34.388 18.9171 34.0558 19.6721 34.3164 20.3428L36.3232 25.5039L34.3281 27.9795C32.8469 27.1711 31.1471 26.712 29.3408 26.7119C23.5841 26.7122 18.9172 31.3789 18.917 37.1357C18.917 42.8927 23.5839 47.5593 29.3408 47.5596C35.0978 47.5594 39.7656 42.8928 39.7656 37.1357C39.7655 34.1233 38.4856 31.4108 36.4424 29.5078L38.5889 26.8447C39.0275 26.3 39.1422 25.562 38.8887 24.9102L36.7451 19.3984ZM51.7256 25.25C51.4583 24.5821 50.6993 24.2574 50.0312 24.5244C49.3635 24.7918 49.0387 25.5498 49.3057 26.2178L50.3633 28.8633C47.8815 30.7687 46.2804 33.7651 46.2803 37.1357C46.2803 42.8928 50.948 47.5595 56.7051 47.5596C62.462 47.5593 67.1289 42.8927 67.1289 37.1357C67.1287 31.3789 62.4619 26.7122 56.7051 26.7119C55.2628 26.7119 53.8879 27.0036 52.6387 27.5332L51.7256 25.25ZM29.3408 29.3174C30.526 29.3174 31.6498 29.5827 32.6562 30.0547L28.2031 35.584C27.1735 36.8626 28.0838 38.7645 29.7256 38.7646H36.9883C36.2388 42.3005 33.0999 44.954 29.3408 44.9541C25.0232 44.9538 21.5234 41.4534 21.5234 37.1357C21.5236 32.8182 25.0233 29.3177 29.3408 29.3174ZM56.7051 29.3174C61.0226 29.3176 64.5232 32.8182 64.5234 37.1357C64.5234 41.4534 61.0227 44.9538 56.7051 44.9541C52.3873 44.954 48.8867 41.4536 48.8867 37.1357C48.8868 34.8743 49.8478 32.8376 51.3828 31.4102L52.4629 34.1104C52.5633 34.3613 52.6899 34.6012 52.8398 34.8262L54.6436 37.5322C55.0427 38.131 55.8514 38.2927 56.4502 37.8936C57.0487 37.4943 57.2106 36.6856 56.8115 36.0869L55.0078 33.3809C54.9578 33.3059 54.9153 33.2253 54.8818 33.1416L53.6074 29.9561C54.5572 29.5458 55.6047 29.3174 56.7051 29.3174ZM43.0234 34.5293C41.5843 34.5294 40.4172 35.6967 40.417 37.1357C40.417 38.575 41.5842 39.7421 43.0234 39.7422C44.4624 39.7418 45.6289 38.5748 45.6289 37.1357C45.6287 35.6968 44.4623 34.5297 43.0234 34.5293ZM34.8027 31.5439C36.0364 32.749 36.872 34.3583 37.0967 36.1582H31.0869L34.8027 31.5439ZM53.6143 17.6016C52.9007 17.5094 52.2477 18.0131 52.1553 18.7266C52.0631 19.4402 52.5667 20.0932 53.2803 20.1855C54.7624 20.3771 55.7295 20.6558 56.2979 20.9453C56.6407 21.12 56.7508 21.2479 56.7812 21.2988C56.7725 21.3545 56.711 21.6119 56.2539 22.0957C55.7498 22.6292 54.9263 23.2622 53.7539 23.9658C53.1372 24.3361 52.9377 25.136 53.3076 25.7529C53.6779 26.3699 54.4777 26.5703 55.0947 26.2002C56.3651 25.4378 57.4129 24.663 58.1475 23.8857C58.847 23.1454 59.4661 22.1858 59.3809 21.0869C59.2882 19.8961 58.4319 19.1084 57.4814 18.624C56.5248 18.1366 55.2158 17.8086 53.6143 17.6016ZM32.2734 15.6357C31.5541 15.6358 30.9701 16.2192 30.9697 16.9385C30.9697 17.6581 31.5539 18.2421 32.2734 18.2422H38.1367C38.8562 18.242 39.4395 17.658 39.4395 16.9385C39.4391 16.2192 38.856 15.6359 38.1367 15.6357H32.2734Z" fill="white"/>
</svg>
