<svg width="75" height="73" viewBox="0 0 75 73" fill="none" xmlns="http://www.w3.org/2000/svg">
<path d="M47.3025 0.610427C48.0734 -0.257121 49.438 -0.190113 50.1223 0.74877L57.5341 10.9188C57.8398 11.3381 58.3071 11.6066 58.8198 11.6581L67.0014 12.4792C68.2262 12.6022 68.9798 13.8927 68.4942 15.0358L65.0922 23.0426C64.7447 23.8606 65.0266 24.813 65.7615 25.3037L74.1831 30.9272C75.1935 31.602 75.2825 33.0672 74.3613 33.8616L67.404 39.8602C66.6578 40.5037 66.5503 41.6293 67.1609 42.4052L74.2222 51.3773C75.0981 52.4903 74.4466 54.1441 73.0534 54.344L62.1667 55.9062C61.0998 56.0593 60.397 57.1103 60.6548 58.1677L63.7159 70.7174C64.0558 72.1118 62.7544 73.3449 61.3996 72.912L39.2027 65.8193C38.801 65.6909 38.3676 65.7075 37.9765 65.866L21.7698 72.4337C20.3356 73.0149 18.8823 71.6396 19.362 70.155L23.3492 57.8138C23.6448 56.899 23.1927 55.9086 22.3124 55.5419L12.4372 51.428C11.6898 51.1167 11.2352 50.3445 11.3208 49.5321L12.4523 38.8078C12.5188 38.1773 12.2593 37.5566 11.7657 37.1652L0.698547 28.3922C-0.542891 27.4081 -0.0425028 25.4023 1.51226 25.1312L17.9492 22.2656V51.4437H25.1478V39.3531C25.1478 37.3992 25.4613 36.0383 26.0881 35.2707C26.7366 34.503 27.742 34.119 29.1039 34.119H30.8771C30.7537 35.7027 30.6913 37.4636 30.6913 39.4016C30.6913 42.2602 30.8258 44.7496 31.0944 46.8694C31.3719 48.9571 31.7479 50.563 32.2223 51.6872C32.6968 52.7793 33.2296 53.3253 33.8204 53.3253C34.3128 53.3252 34.7378 52.9718 35.0959 52.2653C35.454 51.5265 35.7274 50.531 35.9154 49.2783V52.988H38.8827V25.8149H35.9154V29.525C35.7274 28.2724 35.4539 27.2927 35.0959 26.5861C34.7378 25.8474 34.3128 25.4776 33.8204 25.4775C33.2296 25.4775 32.6968 26.04 32.2223 27.1641C31.7768 28.1896 31.4183 29.6683 31.1464 31.6001V21.7144C30.0008 21.7145 28.8983 22.238 27.8391 23.2847C26.7799 24.2966 25.8827 25.6574 25.1478 27.3672V21.9237H19.5202C19.8534 21.7647 20.1348 21.5053 20.3219 21.1754L27.4107 8.68371C27.8262 7.95159 28.6812 7.59898 29.4848 7.8285L37.4899 10.1157C38.1581 10.3065 38.8757 10.0966 39.3396 9.57441L47.3025 0.610427ZM57.4275 22.4672C56.1272 22.4672 55.021 22.9337 54.1091 23.8668C53.1972 24.7627 52.5047 26.0132 52.0319 27.6182C51.576 29.186 51.348 30.9406 51.348 32.8816C51.348 35.1212 51.5929 36.8757 52.0826 38.1449C52.5892 39.414 53.1718 40.3101 53.8304 40.8327C54.5059 41.3553 55.3588 41.8405 56.3889 42.2884C57.2332 42.6617 57.8328 42.9977 58.1874 43.2963C58.5419 43.595 58.7193 44.0987 58.7194 44.8078C58.7194 45.2184 58.6349 45.5732 58.4661 45.8719C58.2972 46.1331 58.0692 46.2639 57.7821 46.264C57.3262 46.264 56.9462 46.0399 56.6422 45.592C56.3551 45.1441 56.1778 44.4532 56.1103 43.52H50.7147C50.7991 45.6851 51.1453 47.6264 51.7533 49.3434C52.3612 51.0605 53.1803 52.4042 54.2104 53.3747C55.2574 54.3452 56.4565 54.8304 57.8075 54.8304C59.0402 54.8304 60.1127 54.4012 61.0245 53.5427C61.9532 52.6842 62.6622 51.5084 63.1519 50.0154C63.6417 48.5223 63.8865 46.8422 63.8865 44.9758C63.8865 42.5869 63.6247 40.7207 63.1013 39.3769C62.5778 37.9958 61.9618 37.0249 61.2525 36.465C60.5433 35.9051 59.6734 35.4015 58.6434 34.9536C57.8666 34.6176 57.3008 34.3 56.9462 34.0013C56.5916 33.6654 56.4142 33.1801 56.4142 32.5456C56.4142 32.0604 56.4903 31.7059 56.6422 31.482C56.7942 31.2207 57.0137 31.0898 57.3008 31.0898C57.7567 31.0899 58.1199 31.3327 58.3901 31.8179C58.6602 32.2659 58.8376 32.9192 58.922 33.7776H63.9119C63.6923 30.4181 63.0337 27.6932 61.936 25.6028C60.8553 23.5125 59.3526 22.4673 57.4275 22.4672ZM40.2479 49.9386H43.7983V40.0983L46.0217 49.9386H50.2596L46.8052 37.693L50.1796 25.2723H46.0537L43.7983 34.5004V17.5749H40.2479V49.9386ZM34.8141 34.8246C35.1364 34.8247 35.4006 35.226 35.6065 36.0289C35.8124 36.8318 35.9154 37.9563 35.9154 39.4016C35.9154 40.8469 35.8124 41.971 35.6065 42.774C35.4006 43.5769 35.1364 43.9785 34.8141 43.9786C34.4918 43.9786 34.2276 43.577 34.0217 42.774C33.8159 41.971 33.7129 40.8469 33.7129 39.4016C33.7129 37.9563 33.8158 36.8318 34.0217 36.0289C34.2276 35.2259 34.4919 34.8246 34.8141 34.8246Z" fill="white"/>
</svg>
